<svg xmlns="http://www.w3.org/2000/svg" xmlns:xlink="http://www.w3.org/1999/xlink" width="256" zoomAndPan="magnify" viewBox="0 0 192 191.999996" height="256" preserveAspectRatio="xMidYMid meet" version="1.0"><defs><clipPath id="9218f24bca"><path d="M 153 66 L 156.523438 66 L 156.523438 70 L 153 70 Z M 153 66 " clip-rule="nonzero"/></clipPath><clipPath id="805f45e7c3"><path d="M 153 74 L 156.523438 74 L 156.523438 78 L 153 78 Z M 153 74 " clip-rule="nonzero"/></clipPath><clipPath id="d70a392d92"><path d="M 153 86 L 156.523438 86 L 156.523438 90 L 153 90 Z M 153 86 " clip-rule="nonzero"/></clipPath><clipPath id="7c666622c1"><path d="M 105 125 L 109 125 L 109 128.25 L 105 128.25 Z M 105 125 " clip-rule="nonzero"/></clipPath><clipPath id="78324aaf55"><path d="M 94.273438 120 L 98 120 L 98 125 L 94.273438 125 Z M 94.273438 120 " clip-rule="nonzero"/></clipPath><clipPath id="99e5c00f88"><path d="M 106 123 L 112 123 L 112 128.25 L 106 128.25 Z M 106 123 " clip-rule="nonzero"/></clipPath><clipPath id="44682b1119"><path d="M 94.273438 43 L 129 43 L 129 111 L 94.273438 111 Z M 94.273438 43 " clip-rule="nonzero"/></clipPath><clipPath id="c346001f76"><path d="M 65.257812 67 L 106 67 L 106 91.808594 L 65.257812 91.808594 Z M 65.257812 67 " clip-rule="nonzero"/></clipPath><clipPath id="68db09257e"><path d="M 116 66.308594 L 123 66.308594 L 123 74 L 116 74 Z M 116 66.308594 " clip-rule="nonzero"/></clipPath><clipPath id="1a66511928"><path d="M 86 66.308594 L 120 66.308594 L 120 83 L 86 83 Z M 86 66.308594 " clip-rule="nonzero"/></clipPath><clipPath id="251079fb50"><path d="M 86 66.308594 L 123.007812 66.308594 L 123.007812 84 L 86 84 Z M 86 66.308594 " clip-rule="nonzero"/></clipPath><clipPath id="d21e7d6bff"><path d="M 34.679688 77 L 38 77 L 38 81 L 34.679688 81 Z M 34.679688 77 " clip-rule="nonzero"/></clipPath><clipPath id="d171e63cdb"><path d="M 94 120 L 94.679688 120 L 94.679688 125 L 94 125 Z M 94 120 " clip-rule="nonzero"/></clipPath><clipPath id="acc1da814e"><path d="M 60 43 L 94.679688 43 L 94.679688 111 L 60 111 Z M 60 43 " clip-rule="nonzero"/></clipPath><clipPath id="0b2becacb9"><path d="M 61.875 44.542969 L 127 44.542969 L 127 109.042969 L 61.875 109.042969 Z M 61.875 44.542969 " clip-rule="nonzero"/></clipPath><clipPath id="ce7a440967"><path d="M 94.324219 44.542969 C 76.402344 44.542969 61.875 59.035156 61.875 76.910156 C 61.875 94.785156 76.402344 109.273438 94.324219 109.273438 C 112.246094 109.273438 126.773438 94.785156 126.773438 76.910156 C 126.773438 59.035156 112.246094 44.542969 94.324219 44.542969 Z M 94.324219 44.542969 " clip-rule="nonzero"/></clipPath><clipPath id="fdc28c31e2"><path d="M 61.875 44.542969 L 127 44.542969 L 127 110 L 61.875 110 Z M 61.875 44.542969 " clip-rule="nonzero"/></clipPath><clipPath id="9078afe760"><path d="M 94 110 L 95 110 L 95 111.292969 L 94 111.292969 Z M 94 110 " clip-rule="nonzero"/></clipPath><clipPath id="046528eca9"><path d="M 94 76 L 128.625 76 L 128.625 111.292969 L 94 111.292969 Z M 94 76 " clip-rule="nonzero"/></clipPath><clipPath id="37019a253d"><path d="M 127 75 L 128.625 75 L 128.625 76 L 127 76 Z M 127 75 " clip-rule="nonzero"/></clipPath></defs><rect x="-19.2" width="230.4" fill="#ffffff" y="-19.2" height="230.399995" fill-opacity="1"/><rect x="-19.2" width="230.4" fill="#ffffff" y="-19.2" height="230.399995" fill-opacity="1"/><path fill="#38b6ff" d="M 143.257812 76.367188 C 143.257812 76.367188 143.242188 76.367188 143.234375 76.367188 L 128.078125 75.675781 C 127.828125 75.664062 127.632812 75.453125 127.644531 75.207031 C 127.660156 74.957031 127.867188 74.761719 128.117188 74.773438 L 143.277344 75.464844 C 143.527344 75.476562 143.71875 75.6875 143.707031 75.933594 C 143.695312 76.175781 143.496094 76.367188 143.253906 76.367188 Z M 143.257812 76.367188 " fill-opacity="1" fill-rule="nonzero"/><path fill="#38b6ff" d="M 143.109375 77.4375 C 143.953125 77.472656 144.667969 76.820312 144.707031 75.980469 C 144.746094 75.136719 144.09375 74.417969 143.25 74.382812 C 142.40625 74.34375 141.691406 74.996094 141.652344 75.839844 C 141.617188 76.683594 142.269531 77.398438 143.109375 77.4375 Z M 143.109375 77.4375 " fill-opacity="1" fill-rule="nonzero"/><path fill="#38b6ff" d="M 150.683594 79.632812 L 150.679688 79.632812 L 127.667969 79.261719 C 127.417969 79.257812 127.21875 79.050781 127.222656 78.800781 C 127.230469 78.554688 127.429688 78.355469 127.675781 78.355469 L 127.683594 78.355469 L 150.691406 78.726562 C 150.941406 78.730469 151.140625 78.9375 151.136719 79.1875 C 151.132812 79.433594 150.933594 79.632812 150.683594 79.632812 Z M 150.683594 79.632812 " fill-opacity="1" fill-rule="nonzero"/><path fill="#38b6ff" d="M 151.933594 78.417969 C 152.035156 78.59375 152.097656 78.78125 152.125 78.984375 C 152.148438 79.183594 152.136719 79.382812 152.082031 79.578125 C 152.03125 79.773438 151.941406 79.953125 151.816406 80.113281 C 151.695312 80.273438 151.542969 80.402344 151.367188 80.503906 C 151.191406 80.605469 151.003906 80.667969 150.800781 80.695312 C 150.601562 80.71875 150.402344 80.707031 150.207031 80.652344 C 150.011719 80.601562 149.832031 80.511719 149.671875 80.386719 C 149.511719 80.265625 149.382812 80.113281 149.28125 79.9375 C 149.179688 79.761719 149.117188 79.574219 149.089844 79.371094 C 149.066406 79.171875 149.078125 78.972656 149.132812 78.777344 C 149.1875 78.582031 149.273438 78.402344 149.398438 78.242188 C 149.523438 78.082031 149.671875 77.953125 149.847656 77.851562 C 150.023438 77.75 150.210938 77.6875 150.414062 77.660156 C 150.613281 77.636719 150.8125 77.648438 151.007812 77.703125 C 151.203125 77.757812 151.382812 77.84375 151.542969 77.96875 C 151.703125 78.09375 151.832031 78.242188 151.933594 78.417969 Z M 151.933594 78.417969 " fill-opacity="1" fill-rule="nonzero"/><path fill="#38b6ff" d="M 145.050781 83.679688 C 145.050781 83.679688 145.042969 83.679688 145.039062 83.679688 L 126.882812 83.140625 C 126.632812 83.132812 126.433594 82.921875 126.441406 82.671875 C 126.449219 82.429688 126.652344 82.234375 126.894531 82.234375 C 126.898438 82.234375 126.902344 82.234375 126.910156 82.234375 L 145.066406 82.777344 C 145.316406 82.785156 145.511719 82.992188 145.503906 83.242188 C 145.496094 83.488281 145.296875 83.679688 145.050781 83.679688 Z M 145.050781 83.679688 " fill-opacity="1" fill-rule="nonzero"/><path fill="#38b6ff" d="M 144.929688 84.753906 C 145.773438 84.78125 146.476562 84.117188 146.503906 83.273438 C 146.527344 82.429688 145.863281 81.722656 145.019531 81.699219 C 144.175781 81.671875 143.472656 82.335938 143.445312 83.179688 C 143.421875 84.023438 144.085938 84.730469 144.929688 84.753906 Z M 144.929688 84.753906 " fill-opacity="1" fill-rule="nonzero"/><path fill="#38b6ff" d="M 143.917969 76.679688 C 143.78125 76.679688 143.644531 76.617188 143.554688 76.5 C 143.40625 76.296875 143.445312 76.015625 143.648438 75.867188 L 154.390625 67.847656 C 154.59375 67.699219 154.875 67.738281 155.023438 67.9375 C 155.171875 68.140625 155.132812 68.421875 154.933594 68.570312 L 144.1875 76.589844 C 144.105469 76.648438 144.011719 76.679688 143.917969 76.679688 Z M 143.917969 76.679688 " fill-opacity="1" fill-rule="nonzero"/><g clip-path="url(#9218f24bca)"><path fill="#38b6ff" d="M 155.515625 69.480469 C 156.191406 68.976562 156.332031 68.019531 155.824219 67.339844 C 155.320312 66.664062 154.363281 66.523438 153.683594 67.03125 C 153.007812 67.535156 152.871094 68.492188 153.375 69.171875 C 153.878906 69.847656 154.835938 69.988281 155.515625 69.480469 Z M 155.515625 69.480469 " fill-opacity="1" fill-rule="nonzero"/></g><path fill="#38b6ff" d="M 151.28125 79.726562 C 151.144531 79.726562 151.011719 79.667969 150.921875 79.550781 C 150.769531 79.355469 150.804688 79.070312 151.003906 78.917969 L 154.929688 75.882812 C 155.125 75.730469 155.410156 75.769531 155.5625 75.964844 C 155.714844 76.164062 155.679688 76.445312 155.480469 76.597656 L 151.554688 79.632812 C 151.472656 79.695312 151.375 79.726562 151.28125 79.726562 Z M 151.28125 79.726562 " fill-opacity="1" fill-rule="nonzero"/><g clip-path="url(#805f45e7c3)"><path fill="#38b6ff" d="M 156.082031 77.5 C 156.75 76.980469 156.871094 76.023438 156.355469 75.355469 C 155.839844 74.683594 154.882812 74.5625 154.210938 75.078125 C 153.542969 75.59375 153.421875 76.554688 153.9375 77.222656 C 154.453125 77.890625 155.414062 78.011719 156.082031 77.5 Z M 156.082031 77.5 " fill-opacity="1" fill-rule="nonzero"/></g><path fill="#38b6ff" d="M 154.878906 88.265625 C 154.8125 88.265625 154.742188 88.25 154.679688 88.21875 L 145.457031 83.605469 C 145.234375 83.496094 145.144531 83.222656 145.253906 83 C 145.367188 82.777344 145.636719 82.683594 145.859375 82.796875 L 155.082031 87.410156 C 155.304688 87.519531 155.394531 87.792969 155.285156 88.015625 C 155.207031 88.171875 155.046875 88.265625 154.878906 88.265625 Z M 154.878906 88.265625 " fill-opacity="1" fill-rule="nonzero"/><g clip-path="url(#d70a392d92)"><path fill="#38b6ff" d="M 154.128906 89.148438 C 154.882812 89.523438 155.800781 89.21875 156.179688 88.460938 C 156.558594 87.707031 156.25 86.789062 155.496094 86.410156 C 154.742188 86.035156 153.824219 86.339844 153.445312 87.09375 C 153.066406 87.851562 153.375 88.769531 154.128906 89.148438 Z M 154.128906 89.148438 " fill-opacity="1" fill-rule="nonzero"/></g><path fill="#38b6ff" d="M 112.105469 48.714844 L 111.6875 48.714844 C 111.4375 48.714844 111.234375 48.515625 111.234375 48.265625 C 111.234375 48.015625 111.4375 47.8125 111.6875 47.8125 L 111.730469 47.8125 L 128.179688 31.367188 C 128.355469 31.191406 128.640625 31.191406 128.816406 31.367188 C 128.992188 31.542969 128.992188 31.828125 128.816406 32.003906 Z M 112.105469 48.714844 " fill-opacity="1" fill-rule="nonzero"/><path fill="#38b6ff" d="M 129.523438 32.820312 C 130.121094 32.222656 130.121094 31.257812 129.523438 30.65625 C 128.925781 30.0625 127.957031 30.0625 127.359375 30.65625 C 126.761719 31.253906 126.761719 32.222656 127.359375 32.820312 C 127.957031 33.417969 128.925781 33.417969 129.523438 32.820312 Z M 129.523438 32.820312 " fill-opacity="1" fill-rule="nonzero"/><path fill="#38b6ff" d="M 114.644531 50.972656 C 114.527344 50.972656 114.410156 50.929688 114.324219 50.839844 C 114.148438 50.664062 114.148438 50.378906 114.324219 50.203125 L 124.257812 40.269531 C 124.433594 40.09375 124.71875 40.09375 124.894531 40.269531 C 125.074219 40.445312 125.074219 40.730469 124.894531 40.90625 L 114.964844 50.839844 C 114.875 50.929688 114.761719 50.972656 114.644531 50.972656 Z M 114.644531 50.972656 " fill-opacity="1" fill-rule="nonzero"/><path fill="#38b6ff" d="M 125.605469 41.722656 C 126.199219 41.128906 126.199219 40.160156 125.605469 39.5625 C 125.007812 38.960938 124.039062 38.964844 123.441406 39.5625 C 122.84375 40.15625 122.84375 41.125 123.441406 41.722656 C 124.039062 42.320312 125.007812 42.320312 125.605469 41.722656 Z M 125.605469 41.722656 " fill-opacity="1" fill-rule="nonzero"/><path fill="#38b6ff" d="M 108.390625 47.035156 C 108.265625 47.035156 108.136719 46.984375 108.046875 46.882812 C 107.882812 46.695312 107.902344 46.410156 108.089844 46.246094 L 109.925781 44.640625 L 118.117188 36.449219 C 118.292969 36.273438 118.578125 36.273438 118.753906 36.449219 C 118.933594 36.625 118.933594 36.910156 118.753906 37.085938 L 110.53125 45.308594 L 108.6875 46.925781 C 108.601562 47 108.496094 47.035156 108.390625 47.035156 Z M 108.390625 47.035156 " fill-opacity="1" fill-rule="nonzero"/><path fill="#38b6ff" d="M 119.464844 37.902344 C 120.058594 37.308594 120.058594 36.339844 119.464844 35.742188 C 118.867188 35.144531 117.898438 35.144531 117.300781 35.742188 C 116.703125 36.335938 116.703125 37.304688 117.300781 37.902344 C 117.898438 38.5 118.867188 38.5 119.464844 37.902344 Z M 119.464844 37.902344 " fill-opacity="1" fill-rule="nonzero"/><path fill="#38b6ff" d="M 118.78125 36.503906 C 118.53125 36.503906 118.328125 36.300781 118.328125 36.050781 L 118.328125 28.722656 C 118.328125 28.472656 118.53125 28.273438 118.78125 28.273438 C 119.03125 28.273438 119.234375 28.472656 119.234375 28.722656 L 119.234375 36.050781 C 119.234375 36.300781 119.03125 36.503906 118.78125 36.503906 Z M 118.78125 36.503906 " fill-opacity="1" fill-rule="nonzero"/><path fill="#38b6ff" d="M 120.308594 28.800781 C 120.308594 27.957031 119.625 27.273438 118.78125 27.273438 C 117.9375 27.273438 117.253906 27.957031 117.253906 28.800781 C 117.253906 29.644531 117.9375 30.328125 118.78125 30.328125 C 119.625 30.328125 120.308594 29.644531 120.308594 28.800781 Z M 120.308594 28.800781 " fill-opacity="1" fill-rule="nonzero"/><path fill="#38b6ff" d="M 128.742188 31.019531 C 128.492188 31.019531 128.289062 30.816406 128.289062 30.566406 L 128.289062 25.25 C 128.289062 25 128.492188 24.800781 128.742188 24.800781 C 128.992188 24.800781 129.191406 25 129.191406 25.25 L 129.191406 30.566406 C 129.191406 30.816406 128.992188 31.019531 128.742188 31.019531 Z M 128.742188 31.019531 " fill-opacity="1" fill-rule="nonzero"/><path fill="#38b6ff" d="M 130.269531 25.328125 C 130.269531 24.480469 129.585938 23.796875 128.742188 23.796875 C 127.898438 23.796875 127.210938 24.484375 127.210938 25.328125 C 127.210938 26.167969 127.898438 26.855469 128.742188 26.855469 C 129.585938 26.855469 130.269531 26.167969 130.269531 25.328125 Z M 130.269531 25.328125 " fill-opacity="1" fill-rule="nonzero"/><path fill="#38b6ff" d="M 127.648438 43.339844 C 127.53125 43.339844 127.414062 43.292969 127.328125 43.207031 L 125.019531 40.898438 C 124.84375 40.722656 124.84375 40.4375 125.019531 40.257812 C 125.199219 40.082031 125.484375 40.082031 125.660156 40.257812 L 127.96875 42.566406 C 128.144531 42.742188 128.144531 43.027344 127.96875 43.207031 C 127.878906 43.292969 127.765625 43.339844 127.648438 43.339844 Z M 127.648438 43.339844 " fill-opacity="1" fill-rule="nonzero"/><path fill="#38b6ff" d="M 126.511719 43.914062 C 127.109375 44.511719 128.078125 44.511719 128.675781 43.914062 C 129.269531 43.316406 129.269531 42.347656 128.675781 41.75 C 128.078125 41.152344 127.109375 41.152344 126.511719 41.75 C 125.914062 42.347656 125.914062 43.316406 126.511719 43.914062 Z M 126.511719 43.914062 " fill-opacity="1" fill-rule="nonzero"/><path fill="#38b6ff" d="M 95.488281 43.425781 C 95.238281 43.425781 95.035156 43.222656 95.035156 42.972656 L 95.035156 22.207031 L 100.882812 16.359375 C 101.058594 16.183594 101.34375 16.183594 101.519531 16.359375 C 101.695312 16.535156 101.695312 16.824219 101.519531 17 L 95.9375 22.578125 L 95.9375 42.972656 C 95.9375 43.222656 95.738281 43.425781 95.488281 43.425781 Z M 95.488281 43.425781 " fill-opacity="1" fill-rule="nonzero"/><path fill="#38b6ff" d="M 102.226562 17.816406 C 102.824219 17.21875 102.824219 16.25 102.226562 15.652344 C 101.632812 15.054688 100.664062 15.054688 100.066406 15.652344 C 99.46875 16.25 99.46875 17.21875 100.066406 17.816406 C 100.660156 18.410156 101.628906 18.410156 102.226562 17.816406 Z M 102.226562 17.816406 " fill-opacity="1" fill-rule="nonzero"/><path fill="#38b6ff" d="M 101.414062 122.691406 C 101.164062 122.691406 100.964844 122.492188 100.964844 122.242188 L 100.964844 108.78125 C 100.964844 108.53125 101.164062 108.328125 101.414062 108.328125 C 101.664062 108.328125 101.867188 108.53125 101.867188 108.78125 L 101.867188 122.242188 C 101.867188 122.492188 101.664062 122.691406 101.414062 122.691406 Z M 101.414062 122.691406 " fill-opacity="1" fill-rule="nonzero"/><path fill="#38b6ff" d="M 99.886719 122.164062 C 99.886719 123.007812 100.570312 123.691406 101.414062 123.691406 C 102.257812 123.691406 102.945312 123.007812 102.945312 122.164062 C 102.945312 121.320312 102.257812 120.636719 101.414062 120.636719 C 100.570312 120.636719 99.886719 121.320312 99.886719 122.164062 Z M 99.886719 122.164062 " fill-opacity="1" fill-rule="nonzero"/><path fill="#38b6ff" d="M 103.722656 118.636719 C 103.472656 118.636719 103.269531 118.433594 103.269531 118.183594 L 103.269531 108.328125 C 103.269531 108.078125 103.472656 107.878906 103.722656 107.878906 C 103.972656 107.878906 104.175781 108.078125 104.175781 108.328125 L 104.175781 118.183594 C 104.175781 118.433594 103.972656 118.636719 103.722656 118.636719 Z M 103.722656 118.636719 " fill-opacity="1" fill-rule="nonzero"/><path fill="#38b6ff" d="M 104.527344 116.8125 C 104.699219 116.917969 104.84375 117.054688 104.964844 117.21875 C 105.082031 117.382812 105.164062 117.5625 105.210938 117.761719 C 105.257812 117.957031 105.265625 118.15625 105.230469 118.355469 C 105.199219 118.558594 105.128906 118.742188 105.023438 118.917969 C 104.917969 119.089844 104.78125 119.234375 104.617188 119.351562 C 104.453125 119.472656 104.273438 119.554688 104.074219 119.601562 C 103.878906 119.648438 103.679688 119.652344 103.476562 119.621094 C 103.277344 119.589844 103.09375 119.519531 102.917969 119.414062 C 102.746094 119.304688 102.601562 119.171875 102.484375 119.007812 C 102.363281 118.839844 102.28125 118.660156 102.234375 118.464844 C 102.1875 118.265625 102.183594 118.066406 102.214844 117.867188 C 102.246094 117.667969 102.316406 117.480469 102.421875 117.308594 C 102.53125 117.136719 102.664062 116.992188 102.828125 116.871094 C 102.992188 116.753906 103.175781 116.671875 103.371094 116.625 C 103.570312 116.578125 103.769531 116.570312 103.96875 116.601562 C 104.167969 116.636719 104.355469 116.707031 104.527344 116.8125 Z M 104.527344 116.8125 " fill-opacity="1" fill-rule="nonzero"/><path fill="#38b6ff" d="M 106.792969 127.070312 C 106.542969 127.070312 106.339844 126.867188 106.339844 126.617188 L 106.339844 107.34375 C 106.339844 107.09375 106.542969 106.894531 106.792969 106.894531 C 107.042969 106.894531 107.246094 107.09375 107.246094 107.34375 L 107.246094 126.617188 C 107.246094 126.867188 107.042969 127.070312 106.792969 127.070312 Z M 106.792969 127.070312 " fill-opacity="1" fill-rule="nonzero"/><g clip-path="url(#7c666622c1)"><path fill="#38b6ff" d="M 108.207031 125.957031 C 108.285156 126.144531 108.324219 126.339844 108.324219 126.539062 C 108.324219 126.742188 108.285156 126.9375 108.207031 127.125 C 108.128906 127.3125 108.019531 127.476562 107.875 127.621094 C 107.730469 127.765625 107.566406 127.875 107.378906 127.953125 C 107.191406 128.03125 106.996094 128.070312 106.792969 128.070312 C 106.589844 128.070312 106.394531 128.03125 106.207031 127.953125 C 106.023438 127.875 105.855469 127.765625 105.714844 127.621094 C 105.570312 127.476562 105.460938 127.3125 105.382812 127.125 C 105.304688 126.9375 105.265625 126.742188 105.265625 126.539062 C 105.265625 126.339844 105.304688 126.144531 105.382812 125.957031 C 105.460938 125.769531 105.570312 125.601562 105.714844 125.460938 C 105.855469 125.316406 106.023438 125.207031 106.207031 125.128906 C 106.394531 125.050781 106.589844 125.011719 106.792969 125.011719 C 106.996094 125.011719 107.191406 125.050781 107.378906 125.128906 C 107.566406 125.207031 107.730469 125.316406 107.875 125.460938 C 108.019531 125.601562 108.128906 125.769531 108.207031 125.957031 Z M 108.207031 125.957031 " fill-opacity="1" fill-rule="nonzero"/></g><path fill="#38b6ff" d="M 136.761719 114.710938 C 136.644531 114.710938 136.53125 114.667969 136.441406 114.578125 L 119.835938 97.972656 C 119.660156 97.796875 119.660156 97.511719 119.835938 97.335938 C 120.011719 97.160156 120.300781 97.160156 120.476562 97.335938 L 137.082031 113.941406 C 137.257812 114.117188 137.257812 114.402344 137.082031 114.578125 C 136.992188 114.667969 136.878906 114.710938 136.761719 114.710938 Z M 136.761719 114.710938 " fill-opacity="1" fill-rule="nonzero"/><path fill="#38b6ff" d="M 135.625 115.285156 C 136.222656 115.882812 137.191406 115.882812 137.789062 115.285156 C 138.386719 114.691406 138.386719 113.722656 137.789062 113.125 C 137.191406 112.527344 136.222656 112.527344 135.625 113.125 C 135.027344 113.71875 135.027344 114.6875 135.625 115.285156 Z M 135.625 115.285156 " fill-opacity="1" fill-rule="nonzero"/><path fill="#38b6ff" d="M 135.769531 110.488281 C 135.652344 110.488281 135.535156 110.445312 135.449219 110.355469 L 121.222656 96.128906 C 121.046875 95.953125 121.046875 95.667969 121.222656 95.492188 C 121.398438 95.3125 121.683594 95.3125 121.859375 95.492188 L 136.089844 109.71875 C 136.265625 109.894531 136.265625 110.179688 136.089844 110.355469 C 136 110.445312 135.882812 110.488281 135.769531 110.488281 Z M 135.769531 110.488281 " fill-opacity="1" fill-rule="nonzero"/><path fill="#38b6ff" d="M 134.632812 111.066406 C 135.230469 111.660156 136.199219 111.660156 136.796875 111.066406 C 137.394531 110.46875 137.394531 109.5 136.796875 108.902344 C 136.199219 108.304688 135.234375 108.304688 134.632812 108.902344 C 134.035156 109.5 134.039062 110.46875 134.632812 111.066406 Z M 134.632812 111.066406 " fill-opacity="1" fill-rule="nonzero"/><path fill="#38b6ff" d="M 133.765625 102.65625 C 133.648438 102.65625 133.53125 102.613281 133.445312 102.523438 L 123.359375 92.4375 C 123.183594 92.261719 123.183594 91.976562 123.359375 91.800781 C 123.535156 91.621094 123.820312 91.621094 123.996094 91.800781 L 134.082031 101.886719 C 134.257812 102.0625 134.257812 102.347656 134.082031 102.523438 C 133.996094 102.613281 133.878906 102.65625 133.765625 102.65625 Z M 133.765625 102.65625 " fill-opacity="1" fill-rule="nonzero"/><path fill="#38b6ff" d="M 132.628906 103.230469 C 133.226562 103.828125 134.191406 103.828125 134.792969 103.230469 C 135.390625 102.636719 135.386719 101.667969 134.792969 101.070312 C 134.195312 100.472656 133.226562 100.472656 132.628906 101.070312 C 132.03125 101.664062 132.03125 102.632812 132.628906 103.230469 Z M 132.628906 103.230469 " fill-opacity="1" fill-rule="nonzero"/><path fill="#38b6ff" d="M 96.023438 122.957031 C 95.78125 122.957031 95.582031 122.769531 95.574219 122.523438 C 95.5625 122.273438 95.761719 122.0625 96.007812 122.058594 L 101.132812 121.878906 C 101.386719 121.867188 101.59375 122.0625 101.597656 122.3125 C 101.609375 122.5625 101.414062 122.773438 101.164062 122.78125 L 96.039062 122.957031 C 96.039062 122.957031 96.03125 122.957031 96.023438 122.957031 Z M 96.023438 122.957031 " fill-opacity="1" fill-rule="nonzero"/><g clip-path="url(#78324aaf55)"><path fill="#38b6ff" d="M 96.050781 120.976562 C 95.207031 121.003906 94.542969 121.714844 94.574219 122.558594 C 94.605469 123.398438 95.3125 124.0625 96.15625 124.03125 C 97 124 97.660156 123.292969 97.628906 122.449219 C 97.601562 121.605469 96.894531 120.945312 96.050781 120.976562 Z M 96.050781 120.976562 " fill-opacity="1" fill-rule="nonzero"/></g><g clip-path="url(#99e5c00f88)"><path fill="#38b6ff" d="M 106.910156 128.007812 C 106.765625 128.007812 106.621094 127.9375 106.535156 127.808594 C 106.394531 127.601562 106.449219 127.320312 106.652344 127.179688 L 111.21875 124.074219 C 111.425781 123.933594 111.707031 123.988281 111.847656 124.195312 C 111.988281 124.398438 111.9375 124.683594 111.730469 124.820312 L 107.164062 127.925781 C 107.085938 127.980469 106.996094 128.007812 106.910156 128.007812 Z M 106.910156 128.007812 " fill-opacity="1" fill-rule="nonzero"/></g><path fill="#38b6ff" d="M 112.273438 125.753906 C 112.96875 125.28125 113.152344 124.328125 112.675781 123.632812 C 112.203125 122.933594 111.25 122.753906 110.554688 123.226562 C 109.855469 123.703125 109.671875 124.652344 110.148438 125.351562 C 110.621094 126.050781 111.574219 126.230469 112.273438 125.753906 Z M 112.273438 125.753906 " fill-opacity="1" fill-rule="nonzero"/><path fill="#38b6ff" d="M 134.867188 102.367188 C 134.722656 102.367188 134.582031 102.300781 134.496094 102.171875 C 134.355469 101.964844 134.40625 101.6875 134.613281 101.546875 L 138.953125 98.5625 C 139.15625 98.417969 139.4375 98.472656 139.582031 98.675781 C 139.722656 98.882812 139.667969 99.164062 139.464844 99.304688 L 135.125 102.289062 C 135.046875 102.34375 134.957031 102.367188 134.867188 102.367188 Z M 134.867188 102.367188 " fill-opacity="1" fill-rule="nonzero"/><path fill="#38b6ff" d="M 140.011719 100.234375 C 140.707031 99.757812 140.882812 98.804688 140.40625 98.109375 C 139.925781 97.414062 138.972656 97.238281 138.277344 97.714844 C 137.582031 98.195312 137.40625 99.148438 137.886719 99.84375 C 138.363281 100.539062 139.316406 100.714844 140.011719 100.234375 Z M 140.011719 100.234375 " fill-opacity="1" fill-rule="nonzero"/><path fill="#38b6ff" d="M 136.875 110.144531 C 136.769531 110.144531 136.664062 110.105469 136.582031 110.035156 C 136.390625 109.871094 136.371094 109.585938 136.53125 109.398438 L 139.738281 105.65625 C 139.902344 105.464844 140.1875 105.445312 140.375 105.605469 C 140.566406 105.769531 140.585938 106.054688 140.425781 106.242188 L 137.21875 109.984375 C 137.128906 110.089844 137.003906 110.144531 136.875 110.144531 Z M 136.875 110.144531 " fill-opacity="1" fill-rule="nonzero"/><path fill="#38b6ff" d="M 141.191406 107 C 141.742188 106.359375 141.667969 105.394531 141.027344 104.847656 C 140.386719 104.296875 139.417969 104.371094 138.871094 105.011719 C 138.320312 105.652344 138.398438 106.617188 139.035156 107.167969 C 139.679688 107.71875 140.644531 107.644531 141.191406 107 Z M 141.191406 107 " fill-opacity="1" fill-rule="nonzero"/><path fill="#38b6ff" d="M 133.644531 118.675781 C 133.523438 118.675781 133.402344 118.628906 133.3125 118.53125 C 133.144531 118.347656 133.152344 118.0625 133.335938 117.890625 L 137.117188 114.382812 C 137.300781 114.210938 137.585938 114.222656 137.757812 114.40625 C 137.925781 114.589844 137.917969 114.875 137.734375 115.042969 L 133.953125 118.554688 C 133.863281 118.636719 133.753906 118.675781 133.644531 118.675781 Z M 133.644531 118.675781 " fill-opacity="1" fill-rule="nonzero"/><path fill="#38b6ff" d="M 132.660156 117.050781 C 132.042969 117.625 132.003906 118.59375 132.582031 119.214844 C 133.15625 119.832031 134.121094 119.867188 134.742188 119.292969 C 135.359375 118.71875 135.398438 117.75 134.820312 117.132812 C 134.246094 116.511719 133.277344 116.476562 132.660156 117.050781 Z M 132.660156 117.050781 " fill-opacity="1" fill-rule="nonzero"/><g clip-path="url(#44682b1119)"><path fill="#38b6ff" d="M 94.449219 110.40625 C 85.464844 110.40625 77.019531 106.90625 70.667969 100.554688 C 64.316406 94.203125 60.816406 85.757812 60.816406 76.773438 C 60.816406 67.789062 64.316406 59.34375 70.667969 52.992188 C 77.019531 46.640625 85.464844 43.140625 94.449219 43.140625 C 103.433594 43.140625 111.878906 46.640625 118.230469 52.992188 C 124.585938 59.34375 128.082031 67.789062 128.082031 76.773438 C 128.082031 85.757812 124.582031 94.203125 118.230469 100.554688 C 111.878906 106.910156 103.433594 110.40625 94.449219 110.40625 Z M 94.449219 44.648438 C 76.738281 44.648438 62.324219 59.058594 62.324219 76.773438 C 62.324219 94.488281 76.738281 108.898438 94.449219 108.898438 C 112.164062 108.898438 126.574219 94.488281 126.574219 76.773438 C 126.574219 59.058594 112.164062 44.648438 94.449219 44.648438 Z M 94.449219 44.648438 " fill-opacity="1" fill-rule="nonzero"/></g><g clip-path="url(#c346001f76)"><path fill="#0f1035" d="M 65.257812 67.59375 L 80.585938 70.902344 C 81.289062 71.054688 82.027344 70.957031 82.664062 70.621094 C 87.375 68.144531 93.113281 68.957031 94.796875 69.273438 C 94.914062 69.296875 94.917969 69.460938 94.800781 69.488281 L 89.054688 71.070312 C 89.019531 71.078125 88.992188 71.101562 88.976562 71.132812 L 87.304688 74.734375 C 87.304688 74.734375 86.523438 77.125 86.523438 77.125 L 88.777344 78.046875 L 91.097656 76.714844 L 94.320312 74.207031 C 94.351562 74.179688 94.394531 74.175781 94.429688 74.191406 L 96.929688 75.210938 C 96.949219 75.21875 96.964844 75.234375 96.976562 75.253906 L 99.84375 79.628906 C 99.855469 79.644531 99.867188 79.65625 99.886719 79.664062 L 102.195312 80.921875 C 102.195312 80.921875 102.203125 80.925781 102.207031 80.929688 L 104.875 82.753906 C 105.019531 82.855469 105.125 83.003906 105.171875 83.175781 C 105.175781 83.195312 105.179688 83.214844 105.183594 83.238281 C 105.242188 83.582031 105.613281 86.40625 101.984375 85.773438 C 101.507812 85.691406 101.074219 86.074219 101.117188 86.554688 C 101.210938 87.621094 100.847656 89.042969 97.996094 88.496094 C 97.617188 88.421875 97.316406 88.796875 97.449219 89.15625 C 97.855469 90.234375 97.933594 91.710938 94.269531 90.152344 C 93.960938 90.019531 93.679688 90.1875 93.617188 90.519531 C 93.542969 90.910156 93.109375 91.277344 91.617188 91.121094 C 91.109375 91.070312 90.613281 90.917969 90.152344 90.691406 C 88.195312 89.722656 82.21875 86.535156 77.921875 81.78125 C 77.480469 81.292969 76.890625 80.964844 76.242188 80.859375 L 65.257812 79.09375 Z M 65.257812 67.59375 " fill-opacity="1" fill-rule="nonzero"/></g><g clip-path="url(#68db09257e)"><path fill="#65cae1" d="M 116.496094 73.390625 L 116.320312 73.472656 L 116.355469 73.550781 L 116.285156 73.625 L 116.441406 73.769531 L 116.625 73.566406 L 122.839844 70.722656 L 122.664062 70.335938 L 122.660156 70.308594 L 122.652344 70.308594 C 122.652344 70.308594 121.082031 66.824219 121.082031 66.824219 L 118.816406 70.832031 Z M 122.558594 70.617188 L 116.984375 73.167969 L 119.042969 70.894531 L 122.519531 70.539062 Z M 121.058594 67.289062 L 122.429688 70.332031 L 119.152344 70.671875 Z M 121.058594 67.289062 " fill-opacity="1" fill-rule="nonzero"/></g><g clip-path="url(#1a66511928)"><path fill="#65cae1" d="M 116.289062 73.648438 L 112.992188 74.777344 L 112.804688 74.59375 L 112.949219 72.308594 L 113.070312 72.378906 L 115.082031 69.089844 L 116.746094 70.914062 L 117.238281 66.53125 L 114.863281 69.039062 L 112.761719 68.875 L 107.269531 70.210938 L 103.683594 71.996094 L 100.867188 71.65625 L 100.449219 71.492188 L 95.386719 69.488281 L 95.386719 69.238281 L 95.007812 69.339844 L 94.910156 69.300781 L 94.964844 69.351562 L 89.035156 70.941406 L 88.972656 70.914062 L 88.949219 70.964844 L 88.71875 71.027344 L 88.71875 71.019531 L 88.625 71.054688 L 88.511719 71.085938 L 88.527344 71.085938 L 88.515625 71.089844 L 88.679688 71.558594 L 87.289062 74.621094 L 87.148438 74.367188 L 86.535156 77.183594 L 89.3125 78.34375 L 89.058594 77.875 L 91.269531 76.636719 L 91.257812 76.625 L 94.382812 74.320312 L 92.890625 73.027344 L 95.132812 72.191406 L 94.628906 74.25 L 96.792969 75.246094 L 96.574219 75.472656 L 96.910156 75.386719 L 99.890625 79.789062 C 99.917969 79.824219 102.261719 81.082031 102.261719 81.082031 L 105.136719 82.976562 L 110.878906 81.640625 L 110.832031 81.433594 L 110.726562 81.460938 L 110.742188 78.453125 L 114.832031 78.742188 L 112.949219 75.28125 L 119.515625 79.164062 Z M 118.917969 78.566406 L 112.96875 75.046875 L 113.027344 74.988281 L 116.203125 73.917969 Z M 110.515625 81.367188 L 107.183594 79.636719 L 110.53125 78.488281 Z M 110.125 72.441406 L 110.511719 78.046875 L 107.964844 75.332031 L 107.964844 75.300781 Z M 105.53125 77.933594 L 102.96875 79.289062 L 102.898438 77.765625 Z M 104.105469 72.574219 L 107.710938 75.390625 L 105.792969 77.632812 Z M 110.265625 78.097656 L 105.96875 77.757812 L 107.867188 75.535156 Z M 103.269531 79.371094 L 105.789062 78.035156 L 106.726562 79.511719 Z M 106.734375 79.726562 L 105.171875 82.507812 L 103.082031 79.578125 L 106.734375 79.722656 Z M 106.960938 79.488281 L 106 77.972656 L 110.367188 78.316406 Z M 107.933594 74.988281 L 107.664062 72.101562 L 107.699219 72.164062 L 107.890625 72.054688 L 109.980469 72.28125 Z M 107.441406 72.007812 L 107.734375 75.140625 L 104.160156 72.347656 Z M 105.34375 76.949219 L 103.339844 74.683594 L 103.738281 72.355469 Z M 105.511719 77.460938 L 105.601562 77.726562 L 102.886719 77.519531 L 102.882812 77.371094 L 103.292969 74.953125 Z M 102.6875 77.246094 L 100.984375 74.226562 L 100.792969 72.121094 L 103.113281 74.75 Z M 100.554688 71.851562 C 100.554688 71.851562 100.765625 74.179688 100.765625 74.179688 L 97.25 75.082031 L 100.359375 71.882812 L 100.550781 71.851562 Z M 102.554688 77.4375 L 99.316406 76.460938 L 100.867188 74.449219 Z M 102.535156 77.65625 L 100.050781 79.40625 L 99.292969 76.6875 L 99.261719 76.664062 L 102.535156 77.652344 Z M 102.691406 77.804688 L 102.757812 79.351562 L 102.660156 79.347656 L 102.671875 79.367188 L 100.308594 79.484375 L 102.6875 77.804688 Z M 102.902344 79.6875 L 104.992188 82.625 L 102.445312 80.945312 L 102.898438 79.6875 Z M 106.957031 79.757812 L 110.378906 81.535156 L 105.292969 82.714844 Z M 110.34375 72.503906 L 112.609375 74.863281 L 110.707031 77.808594 Z M 110.476562 72.335938 L 112.738281 72.304688 L 112.605469 74.402344 Z M 116.957031 67.121094 L 116.589844 70.425781 L 115.210938 68.917969 Z M 112.878906 69.273438 L 114.734375 69.253906 L 112.960938 72.152344 L 112.964844 72.089844 L 110.367188 72.128906 L 110.378906 72.113281 L 108.214844 71.878906 L 112.878906 69.277344 Z M 112.773438 69.089844 L 107.847656 71.839844 L 107.636719 71.816406 L 107.628906 71.722656 L 107.613281 71.722656 C 107.613281 71.722656 107.316406 70.417969 107.316406 70.417969 Z M 107.402344 71.75 L 103.851562 72.105469 L 107.117188 70.496094 Z M 103.160156 74.480469 L 100.851562 71.867188 L 103.53125 72.320312 Z M 100.289062 71.65625 L 100.257812 71.6875 L 98.039062 72.058594 L 95.8125 69.882812 L 100.285156 71.65625 Z M 95.140625 69.523438 L 95.175781 69.558594 L 95.175781 71.894531 L 89.535156 71.023438 Z M 88.867188 71.136719 L 88.804688 71.277344 L 88.75 71.117188 Z M 89.796875 74.675781 L 89.980469 74.65625 L 89.929688 74.511719 L 92.378906 73.332031 L 90.96875 76.234375 Z M 92.582031 72.914062 L 92.480469 72.949219 L 92.539062 73 L 92.527344 73.023438 L 89.859375 74.3125 L 88.90625 71.566406 L 89.074219 71.195312 L 92.59375 72.882812 L 92.578125 72.914062 Z M 88.78125 71.847656 L 89.667969 74.40625 L 89.617188 74.429688 L 89.519531 74.304688 L 89.488281 74.492188 L 87.492188 74.683594 Z M 86.777344 77.054688 L 87.234375 74.96875 L 88.835938 77.914062 L 86.78125 77.054688 Z M 87.4375 74.902344 L 89.449219 74.707031 L 88.9375 77.652344 L 87.441406 74.902344 Z M 89.167969 77.566406 L 89.644531 74.824219 L 90.953125 76.566406 L 89.167969 77.570312 Z M 94.042969 74.304688 L 91.132812 76.453125 L 91.113281 76.425781 L 92.707031 73.144531 L 94.046875 74.304688 Z M 92.871094 72.804688 L 92.878906 72.785156 L 89.714844 71.269531 L 94.863281 72.0625 L 92.871094 72.808594 Z M 95.363281 72.140625 L 95.386719 72.144531 L 95.386719 72.03125 L 95.433594 71.851562 L 95.386719 71.867188 L 95.386719 69.765625 L 97.710938 72.035156 L 95.46875 71.792969 L 96.90625 75.0625 L 94.875 74.128906 Z M 97.863281 72.265625 L 97.015625 74.785156 L 95.808594 72.042969 Z M 98.085938 72.265625 L 100.007812 71.941406 L 97.238281 74.789062 Z M 97.242188 75.300781 L 100.609375 74.4375 L 99.015625 76.503906 L 97.261719 75.347656 L 97.238281 75.304688 Z M 99.109375 76.820312 L 99.789062 79.257812 L 97.347656 75.65625 Z M 102.71875 79.578125 L 102.261719 80.835938 L 100.304688 79.699219 Z M 114.457031 78.503906 L 110.742188 78.238281 L 110.742188 78.1875 C 110.742188 78.1875 110.734375 78.191406 110.734375 78.191406 L 110.730469 78.160156 L 112.664062 75.199219 Z M 112.925781 75.023438 L 112.9375 75.019531 L 112.964844 75.046875 Z M 112.925781 75.023438 " fill-opacity="1" fill-rule="nonzero"/></g><g clip-path="url(#251079fb50)"><path fill="#38b6ff" d="M 121.058594 66.625 C 121.332031 66.625 121.554688 66.84375 121.554688 67.121094 C 121.554688 67.394531 121.332031 67.617188 121.058594 67.617188 C 120.78125 67.617188 120.558594 67.394531 120.558594 67.121094 C 120.558594 66.84375 120.78125 66.625 121.058594 66.625 Z M 116.601562 66.824219 C 116.601562 67.097656 116.824219 67.320312 117.097656 67.320312 C 117.371094 67.320312 117.59375 67.101562 117.59375 66.824219 C 117.59375 66.550781 117.371094 66.328125 117.097656 66.328125 C 116.820312 66.328125 116.601562 66.550781 116.601562 66.824219 Z M 118.421875 70.683594 C 118.421875 70.957031 118.644531 71.179688 118.917969 71.179688 C 119.195312 71.179688 119.417969 70.957031 119.417969 70.683594 C 119.417969 70.40625 119.195312 70.183594 118.917969 70.183594 C 118.644531 70.183594 118.421875 70.40625 118.421875 70.683594 Z M 116.183594 70.605469 C 116.183594 70.878906 116.40625 71.101562 116.679688 71.101562 C 116.957031 71.101562 117.179688 70.878906 117.179688 70.605469 C 117.179688 70.332031 116.957031 70.109375 116.679688 70.109375 C 116.40625 70.109375 116.183594 70.332031 116.183594 70.605469 Z M 114.605469 69.027344 C 114.605469 69.300781 114.828125 69.523438 115.105469 69.523438 C 115.378906 69.523438 115.601562 69.304688 115.601562 69.027344 C 115.601562 68.753906 115.378906 68.53125 115.105469 68.53125 C 114.828125 68.53125 114.605469 68.753906 114.605469 69.027344 Z M 115.828125 73.761719 C 115.828125 74.035156 116.050781 74.257812 116.324219 74.257812 C 116.601562 74.257812 116.820312 74.035156 116.820312 73.761719 C 116.820312 73.488281 116.601562 73.265625 116.324219 73.265625 C 116.050781 73.265625 115.828125 73.488281 115.828125 73.761719 Z M 112.46875 72.261719 C 112.46875 72.535156 112.691406 72.757812 112.964844 72.757812 C 113.242188 72.757812 113.460938 72.535156 113.460938 72.261719 C 113.460938 71.984375 113.242188 71.761719 112.964844 71.761719 C 112.691406 71.761719 112.46875 71.984375 112.46875 72.261719 Z M 112.292969 68.976562 C 112.292969 69.25 112.511719 69.476562 112.789062 69.476562 C 113.0625 69.476562 113.285156 69.253906 113.285156 68.976562 C 113.285156 68.703125 113.0625 68.480469 112.789062 68.480469 C 112.511719 68.480469 112.292969 68.703125 112.292969 68.976562 Z M 112.292969 74.929688 C 112.292969 75.203125 112.511719 75.429688 112.789062 75.429688 C 113.0625 75.429688 113.285156 75.207031 113.285156 74.929688 C 113.285156 74.65625 113.0625 74.433594 112.789062 74.433594 C 112.511719 74.433594 112.292969 74.65625 112.292969 74.929688 Z M 109.722656 72.234375 C 109.722656 72.507812 109.945312 72.730469 110.21875 72.730469 C 110.492188 72.730469 110.714844 72.507812 110.714844 72.234375 C 110.714844 71.960938 110.492188 71.738281 110.21875 71.738281 C 109.945312 71.738281 109.722656 71.960938 109.722656 72.234375 Z M 107.367188 75.375 C 107.367188 75.648438 107.589844 75.875 107.867188 75.875 C 108.140625 75.875 108.363281 75.652344 108.363281 75.375 C 108.363281 75.101562 108.140625 74.878906 107.867188 74.878906 C 107.589844 74.878906 107.367188 75.101562 107.367188 75.375 Z M 107.152344 71.980469 C 107.152344 72.253906 107.375 72.476562 107.648438 72.476562 C 107.921875 72.476562 108.144531 72.253906 108.144531 71.980469 C 108.144531 71.707031 107.921875 71.484375 107.648438 71.484375 C 107.375 71.484375 107.152344 71.707031 107.152344 71.980469 Z M 110.027344 81.46875 C 110.027344 81.742188 110.25 81.96875 110.523438 81.96875 C 110.796875 81.96875 111.019531 81.746094 111.019531 81.46875 C 111.019531 81.195312 110.796875 80.972656 110.523438 80.972656 C 110.25 80.972656 110.027344 81.195312 110.027344 81.46875 Z M 114.148438 78.625 C 114.148438 78.898438 114.371094 79.121094 114.644531 79.121094 C 114.921875 79.121094 115.140625 78.898438 115.140625 78.625 C 115.140625 78.347656 114.921875 78.125 114.644531 78.125 C 114.371094 78.125 114.148438 78.347656 114.148438 78.625 Z M 104.683594 82.707031 C 104.683594 82.980469 104.90625 83.203125 105.179688 83.203125 C 105.457031 83.203125 105.675781 82.980469 105.675781 82.707031 C 105.675781 82.433594 105.457031 82.210938 105.179688 82.210938 C 104.90625 82.210938 104.683594 82.433594 104.683594 82.707031 Z M 90.484375 76.484375 C 90.484375 76.757812 90.707031 76.980469 90.984375 76.980469 C 91.257812 76.980469 91.480469 76.757812 91.480469 76.484375 C 91.480469 76.207031 91.257812 75.988281 90.984375 75.988281 C 90.707031 75.988281 90.484375 76.207031 90.484375 76.484375 Z M 92.164062 72.972656 C 92.164062 73.246094 92.386719 73.472656 92.664062 73.472656 C 92.9375 73.472656 93.160156 73.25 93.160156 72.972656 C 93.160156 72.699219 92.9375 72.476562 92.664062 72.476562 C 92.386719 72.476562 92.164062 72.699219 92.164062 72.972656 Z M 86.160156 77.121094 C 86.160156 77.394531 86.382812 77.617188 86.65625 77.617188 C 86.933594 77.617188 87.152344 77.394531 87.152344 77.121094 C 87.152344 76.84375 86.933594 76.621094 86.65625 76.621094 C 86.382812 76.621094 86.160156 76.84375 86.160156 77.121094 Z M 88.449219 77.984375 C 88.449219 78.257812 88.671875 78.480469 88.945312 78.480469 C 89.222656 78.480469 89.445312 78.257812 89.445312 77.984375 C 89.445312 77.710938 89.222656 77.488281 88.945312 77.488281 C 88.671875 77.488281 88.449219 77.710938 88.449219 77.984375 Z M 102.316406 79.488281 C 102.316406 79.761719 102.539062 79.984375 102.8125 79.984375 C 103.089844 79.984375 103.308594 79.761719 103.308594 79.488281 C 103.308594 79.210938 103.089844 78.988281 102.8125 78.988281 C 102.539062 78.988281 102.316406 79.210938 102.316406 79.488281 Z M 106.429688 79.570312 C 106.429688 79.84375 106.652344 80.066406 106.925781 80.066406 C 107.199219 80.066406 107.421875 79.847656 107.421875 79.570312 C 107.421875 79.296875 107.199219 79.074219 106.925781 79.074219 C 106.652344 79.074219 106.429688 79.296875 106.429688 79.570312 Z M 105.34375 77.816406 C 105.34375 78.089844 105.5625 78.3125 105.839844 78.3125 C 106.113281 78.3125 106.335938 78.089844 106.335938 77.816406 C 106.335938 77.542969 106.113281 77.320312 105.839844 77.320312 C 105.5625 77.320312 105.34375 77.542969 105.34375 77.816406 Z M 103.300781 72.074219 C 103.300781 72.347656 103.523438 72.570312 103.796875 72.570312 C 104.070312 72.570312 104.292969 72.347656 104.292969 72.074219 C 104.292969 71.796875 104.070312 71.574219 103.796875 71.574219 C 103.523438 71.574219 103.300781 71.796875 103.300781 72.074219 Z M 100.191406 74.304688 C 100.191406 74.578125 100.410156 74.800781 100.6875 74.800781 C 100.960938 74.800781 101.183594 74.578125 101.183594 74.304688 C 101.183594 74.03125 100.960938 73.808594 100.6875 73.808594 C 100.410156 73.808594 100.191406 74.03125 100.191406 74.304688 Z M 99.445312 79.609375 C 99.445312 79.882812 99.667969 80.105469 99.941406 80.105469 C 100.214844 80.105469 100.4375 79.886719 100.4375 79.609375 C 100.4375 79.335938 100.214844 79.113281 99.941406 79.113281 C 99.667969 79.113281 99.445312 79.335938 99.445312 79.609375 Z M 102.25 77.492188 C 102.25 77.765625 102.472656 77.988281 102.746094 77.988281 C 103.023438 77.988281 103.246094 77.765625 103.246094 77.492188 C 103.246094 77.21875 103.023438 76.996094 102.746094 76.996094 C 102.472656 76.996094 102.25 77.21875 102.25 77.492188 Z M 98.644531 76.519531 C 98.644531 76.792969 98.867188 77.015625 99.140625 77.015625 C 99.414062 77.015625 99.636719 76.792969 99.636719 76.519531 C 99.636719 76.242188 99.414062 76.023438 99.140625 76.023438 C 98.867188 76.023438 98.644531 76.242188 98.644531 76.519531 Z M 94.921875 71.957031 C 94.921875 72.230469 95.144531 72.453125 95.417969 72.453125 C 95.695312 72.453125 95.914062 72.234375 95.914062 71.957031 C 95.914062 71.683594 95.695312 71.460938 95.417969 71.460938 C 95.144531 71.460938 94.921875 71.683594 94.921875 71.957031 Z M 101.8125 80.925781 C 101.8125 81.199219 102.03125 81.421875 102.308594 81.421875 C 102.582031 81.421875 102.804688 81.199219 102.804688 80.925781 C 102.804688 80.652344 102.582031 80.429688 102.308594 80.429688 C 102.03125 80.429688 101.8125 80.652344 101.8125 80.925781 Z M 110.015625 78.238281 C 110.015625 78.511719 110.238281 78.734375 110.515625 78.734375 C 110.789062 78.734375 111.011719 78.511719 111.011719 78.238281 C 111.011719 77.960938 110.789062 77.738281 110.515625 77.738281 C 110.238281 77.738281 110.015625 77.960938 110.015625 78.238281 Z M 100.140625 71.714844 C 100.140625 71.988281 100.363281 72.210938 100.636719 72.210938 C 100.914062 72.210938 101.136719 71.988281 101.136719 71.714844 C 101.136719 71.441406 100.914062 71.21875 100.636719 71.21875 C 100.363281 71.21875 100.140625 71.441406 100.140625 71.714844 Z M 94.867188 69.59375 C 94.867188 69.867188 95.085938 70.089844 95.363281 70.089844 C 95.636719 70.089844 95.859375 69.867188 95.859375 69.59375 C 95.859375 69.316406 95.636719 69.09375 95.363281 69.09375 C 95.085938 69.09375 94.867188 69.316406 94.867188 69.59375 Z M 96.527344 75.277344 C 96.527344 75.550781 96.746094 75.773438 97.023438 75.773438 C 97.296875 75.773438 97.519531 75.554688 97.519531 75.277344 C 97.519531 75.003906 97.296875 74.78125 97.023438 74.78125 C 96.746094 74.78125 96.527344 75.003906 96.527344 75.277344 Z M 89.101562 74.535156 C 89.101562 74.808594 89.324219 75.03125 89.597656 75.03125 C 89.875 75.03125 90.09375 74.808594 90.09375 74.535156 C 90.09375 74.261719 89.875 74.039062 89.597656 74.039062 C 89.324219 74.039062 89.101562 74.257812 89.101562 74.535156 Z M 88.347656 71.21875 C 88.347656 71.492188 88.570312 71.714844 88.84375 71.714844 C 89.121094 71.714844 89.34375 71.492188 89.34375 71.21875 C 89.34375 70.945312 89.121094 70.722656 88.84375 70.722656 C 88.570312 70.722656 88.347656 70.945312 88.347656 71.21875 Z M 93.757812 74.191406 C 93.757812 74.464844 93.980469 74.6875 94.253906 74.6875 C 94.53125 74.6875 94.753906 74.464844 94.753906 74.191406 C 94.753906 73.917969 94.53125 73.695312 94.253906 73.695312 C 93.980469 73.695312 93.757812 73.917969 93.757812 74.191406 Z M 97.507812 72.171875 C 97.507812 72.445312 97.730469 72.671875 98.003906 72.671875 C 98.28125 72.671875 98.503906 72.449219 98.503906 72.171875 C 98.503906 71.898438 98.28125 71.675781 98.003906 71.675781 C 97.730469 71.675781 97.507812 71.898438 97.507812 72.171875 Z M 86.824219 74.804688 C 86.824219 75.078125 87.042969 75.304688 87.320312 75.304688 C 87.59375 75.304688 87.816406 75.082031 87.816406 74.804688 C 87.816406 74.53125 87.59375 74.308594 87.320312 74.308594 C 87.042969 74.308594 86.824219 74.53125 86.824219 74.804688 Z M 122.230469 70.507812 C 122.230469 70.78125 122.453125 71.003906 122.726562 71.003906 C 123.003906 71.003906 123.222656 70.78125 123.222656 70.507812 C 123.222656 70.234375 123.003906 70.011719 122.726562 70.011719 C 122.453125 70.011719 122.230469 70.234375 122.230469 70.507812 Z M 118.71875 78.867188 C 118.71875 79.140625 118.941406 79.363281 119.214844 79.363281 C 119.492188 79.363281 119.714844 79.140625 119.714844 78.867188 C 119.714844 78.589844 119.492188 78.371094 119.214844 78.371094 C 118.941406 78.371094 118.71875 78.589844 118.71875 78.867188 Z M 106.667969 70.265625 C 106.667969 70.539062 106.890625 70.761719 107.164062 70.761719 C 107.441406 70.761719 107.660156 70.539062 107.660156 70.265625 C 107.660156 69.988281 107.441406 69.765625 107.164062 69.765625 C 106.890625 69.765625 106.667969 69.988281 106.667969 70.265625 Z M 102.773438 74.667969 C 102.773438 74.941406 102.996094 75.164062 103.273438 75.164062 C 103.546875 75.164062 103.769531 74.941406 103.769531 74.667969 C 103.769531 74.390625 103.546875 74.171875 103.273438 74.171875 C 102.996094 74.171875 102.773438 74.390625 102.773438 74.667969 Z M 102.773438 74.667969 " fill-opacity="1" fill-rule="nonzero"/></g><path fill="#0f1035" d="M 92.027344 43.886719 C 91.777344 43.886719 91.574219 43.683594 91.574219 43.433594 L 91.574219 25.039062 C 91.574219 24.789062 91.777344 24.585938 92.027344 24.585938 C 92.277344 24.585938 92.476562 24.789062 92.476562 25.039062 L 92.476562 43.433594 C 92.476562 43.683594 92.277344 43.886719 92.027344 43.886719 Z M 92.027344 43.886719 " fill-opacity="1" fill-rule="nonzero"/><path fill="#0f1035" d="M 93.554688 25.117188 C 93.554688 24.273438 92.871094 23.589844 92.027344 23.589844 C 91.183594 23.589844 90.496094 24.273438 90.496094 25.117188 C 90.496094 25.960938 91.183594 26.644531 92.027344 26.644531 C 92.871094 26.644531 93.554688 25.960938 93.554688 25.117188 Z M 93.554688 25.117188 " fill-opacity="1" fill-rule="nonzero"/><path fill="#0f1035" d="M 87.875 44.410156 C 87.625 44.410156 87.421875 44.207031 87.421875 43.957031 L 87.421875 32.949219 C 87.421875 32.699219 87.625 32.496094 87.875 32.496094 C 88.125 32.496094 88.324219 32.699219 88.324219 32.949219 L 88.324219 43.957031 C 88.324219 44.207031 88.125 44.410156 87.875 44.410156 Z M 87.875 44.410156 " fill-opacity="1" fill-rule="nonzero"/><path fill="#0f1035" d="M 89.402344 33.027344 C 89.402344 32.179688 88.71875 31.496094 87.875 31.496094 C 87.03125 31.496094 86.34375 32.183594 86.34375 33.027344 C 86.34375 33.867188 87.03125 34.554688 87.875 34.554688 C 88.71875 34.554688 89.402344 33.867188 89.402344 33.027344 Z M 89.402344 33.027344 " fill-opacity="1" fill-rule="nonzero"/><path fill="#0f1035" d="M 91.871094 24.34375 C 91.757812 24.34375 91.640625 24.300781 91.554688 24.210938 L 86.996094 19.652344 C 86.820312 19.476562 86.820312 19.1875 86.996094 19.011719 C 87.171875 18.835938 87.457031 18.835938 87.632812 19.011719 L 92.191406 23.570312 C 92.367188 23.746094 92.367188 24.035156 92.191406 24.210938 C 92.101562 24.300781 91.988281 24.34375 91.871094 24.34375 Z M 91.871094 24.34375 " fill-opacity="1" fill-rule="nonzero"/><path fill="#0f1035" d="M 88.449219 18.304688 C 87.851562 17.707031 86.882812 17.707031 86.285156 18.304688 C 85.691406 18.902344 85.691406 19.871094 86.285156 20.46875 C 86.882812 21.0625 87.851562 21.0625 88.449219 20.46875 C 89.046875 19.871094 89.046875 18.902344 88.449219 18.304688 Z M 88.449219 18.304688 " fill-opacity="1" fill-rule="nonzero"/><path fill="#0f1035" d="M 87.34375 32.703125 C 87.226562 32.703125 87.109375 32.660156 87.023438 32.570312 L 84.046875 29.597656 C 83.871094 29.421875 83.871094 29.132812 84.046875 28.957031 C 84.226562 28.78125 84.511719 28.78125 84.6875 28.957031 L 87.660156 31.933594 C 87.839844 32.109375 87.839844 32.394531 87.660156 32.570312 C 87.574219 32.660156 87.457031 32.703125 87.34375 32.703125 Z M 87.34375 32.703125 " fill-opacity="1" fill-rule="nonzero"/><path fill="#0f1035" d="M 85.503906 28.25 C 84.90625 27.652344 83.9375 27.652344 83.339844 28.25 C 82.742188 28.847656 82.742188 29.816406 83.339844 30.414062 C 83.9375 31.007812 84.902344 31.007812 85.503906 30.414062 C 86.097656 29.816406 86.097656 28.847656 85.503906 28.25 Z M 85.503906 28.25 " fill-opacity="1" fill-rule="nonzero"/><path fill="#0f1035" d="M 60.980469 75.726562 L 42.125 75.726562 C 41.875 75.726562 41.675781 75.523438 41.675781 75.273438 C 41.675781 75.023438 41.875 74.824219 42.125 74.824219 L 60.980469 74.824219 C 61.234375 74.824219 61.433594 75.023438 61.433594 75.273438 C 61.433594 75.523438 61.234375 75.726562 60.980469 75.726562 Z M 60.980469 75.726562 " fill-opacity="1" fill-rule="nonzero"/><path fill="#0f1035" d="M 42.199219 73.746094 C 41.355469 73.746094 40.671875 74.433594 40.671875 75.273438 C 40.671875 76.117188 41.359375 76.804688 42.199219 76.804688 C 43.042969 76.804688 43.730469 76.117188 43.730469 75.273438 C 43.730469 74.433594 43.042969 73.746094 42.199219 73.746094 Z M 42.199219 73.746094 " fill-opacity="1" fill-rule="nonzero"/><path fill="#0f1035" d="M 60.648438 79.648438 L 43.925781 79.648438 C 43.675781 79.648438 43.472656 79.445312 43.472656 79.195312 C 43.472656 78.945312 43.675781 78.746094 43.925781 78.746094 L 60.648438 78.746094 C 60.898438 78.746094 61.101562 78.945312 61.101562 79.195312 C 61.101562 79.445312 60.898438 79.648438 60.648438 79.648438 Z M 60.648438 79.648438 " fill-opacity="1" fill-rule="nonzero"/><path fill="#0f1035" d="M 44.003906 77.667969 C 43.15625 77.667969 42.472656 78.355469 42.472656 79.195312 C 42.472656 80.039062 43.160156 80.726562 44.003906 80.726562 C 44.847656 80.726562 45.53125 80.039062 45.53125 79.195312 C 45.53125 78.355469 44.847656 77.667969 44.003906 77.667969 Z M 44.003906 77.667969 " fill-opacity="1" fill-rule="nonzero"/><path fill="#0f1035" d="M 60.878906 72.035156 L 42.9375 72.035156 C 42.6875 72.035156 42.488281 71.832031 42.488281 71.582031 C 42.488281 71.332031 42.6875 71.132812 42.9375 71.132812 L 60.878906 71.132812 C 61.128906 71.132812 61.332031 71.332031 61.332031 71.582031 C 61.332031 71.832031 61.128906 72.035156 60.878906 72.035156 Z M 60.878906 72.035156 " fill-opacity="1" fill-rule="nonzero"/><path fill="#0f1035" d="M 43.015625 70.054688 C 42.167969 70.054688 41.484375 70.742188 41.484375 71.582031 C 41.484375 72.425781 42.171875 73.113281 43.015625 73.113281 C 43.859375 73.113281 44.542969 72.425781 44.542969 71.582031 C 44.542969 70.742188 43.859375 70.054688 43.015625 70.054688 Z M 43.015625 70.054688 " fill-opacity="1" fill-rule="nonzero"/><path fill="#0f1035" d="M 59.148438 111.6875 C 59.03125 111.6875 58.917969 111.640625 58.828125 111.554688 C 58.652344 111.375 58.652344 111.089844 58.828125 110.914062 L 70.4375 99.304688 C 70.617188 99.128906 70.902344 99.128906 71.078125 99.304688 C 71.253906 99.480469 71.253906 99.765625 71.078125 99.941406 L 59.46875 111.554688 C 59.378906 111.640625 59.265625 111.6875 59.148438 111.6875 Z M 59.148438 111.6875 " fill-opacity="1" fill-rule="nonzero"/><path fill="#0f1035" d="M 58.121094 110.101562 C 57.523438 110.695312 57.523438 111.664062 58.121094 112.261719 C 58.71875 112.859375 59.6875 112.859375 60.285156 112.261719 C 60.882812 111.667969 60.878906 110.699219 60.285156 110.101562 C 59.6875 109.503906 58.71875 109.503906 58.121094 110.101562 Z M 58.121094 110.101562 " fill-opacity="1" fill-rule="nonzero"/><path fill="#0f1035" d="M 60.636719 116.105469 C 60.519531 116.105469 60.402344 116.0625 60.316406 115.972656 C 60.140625 115.796875 60.140625 115.511719 60.316406 115.335938 L 73.710938 101.941406 C 73.886719 101.765625 74.171875 101.765625 74.347656 101.941406 C 74.527344 102.117188 74.527344 102.402344 74.347656 102.578125 L 60.957031 115.972656 C 60.867188 116.0625 60.753906 116.105469 60.636719 116.105469 Z M 60.636719 116.105469 " fill-opacity="1" fill-rule="nonzero"/><path fill="#0f1035" d="M 59.609375 114.519531 C 59.015625 115.113281 59.015625 116.082031 59.609375 116.679688 C 60.207031 117.28125 61.175781 117.277344 61.773438 116.679688 C 62.371094 116.085938 62.371094 115.117188 61.773438 114.519531 C 61.175781 113.921875 60.207031 113.921875 59.609375 114.519531 Z M 59.609375 114.519531 " fill-opacity="1" fill-rule="nonzero"/><path fill="#0f1035" d="M 69.859375 111.277344 C 69.742188 111.277344 69.625 111.234375 69.539062 111.144531 C 69.363281 110.96875 69.363281 110.683594 69.539062 110.507812 L 75.558594 104.488281 C 75.734375 104.3125 76.019531 104.3125 76.195312 104.488281 C 76.371094 104.664062 76.371094 104.949219 76.195312 105.125 L 70.175781 111.144531 C 70.089844 111.234375 69.972656 111.277344 69.859375 111.277344 Z M 69.859375 111.277344 " fill-opacity="1" fill-rule="nonzero"/><path fill="#0f1035" d="M 68.832031 109.691406 C 68.234375 110.289062 68.234375 111.257812 68.832031 111.855469 C 69.425781 112.449219 70.394531 112.449219 70.992188 111.855469 C 71.589844 111.257812 71.589844 110.289062 70.992188 109.691406 C 70.398438 109.09375 69.429688 109.09375 68.832031 109.691406 Z M 68.832031 109.691406 " fill-opacity="1" fill-rule="nonzero"/><path fill="#0f1035" d="M 67.339844 58.070312 C 67.222656 58.070312 67.109375 58.027344 67.019531 57.9375 L 51.894531 42.8125 C 51.71875 42.636719 51.71875 42.351562 51.894531 42.171875 C 52.070312 41.996094 52.355469 41.996094 52.53125 42.171875 L 67.660156 57.300781 C 67.835938 57.476562 67.835938 57.761719 67.660156 57.9375 C 67.570312 58.027344 67.457031 58.070312 67.339844 58.070312 Z M 67.339844 58.070312 " fill-opacity="1" fill-rule="nonzero"/><path fill="#0f1035" d="M 53.347656 41.464844 C 52.753906 40.871094 51.785156 40.871094 51.1875 41.464844 C 50.589844 42.0625 50.589844 43.03125 51.1875 43.628906 C 51.78125 44.226562 52.75 44.226562 53.347656 43.628906 C 53.945312 43.03125 53.945312 42.0625 53.347656 41.464844 Z M 53.347656 41.464844 " fill-opacity="1" fill-rule="nonzero"/><path fill="#0f1035" d="M 69.183594 55.992188 C 69.070312 55.992188 68.953125 55.949219 68.867188 55.863281 L 54.195312 41.191406 C 54.019531 41.015625 54.019531 40.730469 54.195312 40.554688 C 54.371094 40.378906 54.660156 40.378906 54.835938 40.554688 L 69.503906 55.222656 C 69.679688 55.398438 69.679688 55.683594 69.503906 55.863281 C 69.414062 55.949219 69.300781 55.992188 69.183594 55.992188 Z M 69.183594 55.992188 " fill-opacity="1" fill-rule="nonzero"/><path fill="#0f1035" d="M 55.652344 39.84375 C 55.054688 39.25 54.085938 39.25 53.488281 39.84375 C 52.890625 40.441406 52.890625 41.410156 53.488281 42.007812 C 54.085938 42.605469 55.054688 42.605469 55.652344 42.007812 C 56.246094 41.410156 56.246094 40.441406 55.652344 39.84375 Z M 55.652344 39.84375 " fill-opacity="1" fill-rule="nonzero"/><path fill="#0f1035" d="M 71.03125 54.148438 C 70.914062 54.148438 70.800781 54.105469 70.710938 54.015625 L 61.035156 44.339844 C 60.859375 44.160156 60.859375 43.875 61.035156 43.699219 C 61.210938 43.523438 61.496094 43.523438 61.671875 43.699219 L 71.351562 53.375 C 71.527344 53.550781 71.527344 53.839844 71.351562 54.015625 C 71.261719 54.105469 71.148438 54.148438 71.03125 54.148438 Z M 71.03125 54.148438 " fill-opacity="1" fill-rule="nonzero"/><path fill="#0f1035" d="M 62.488281 42.992188 C 61.894531 42.398438 60.925781 42.398438 60.328125 42.992188 C 59.730469 43.589844 59.730469 44.558594 60.328125 45.15625 C 60.921875 45.753906 61.890625 45.753906 62.488281 45.15625 C 63.089844 44.558594 63.085938 43.589844 62.488281 42.992188 Z M 62.488281 42.992188 " fill-opacity="1" fill-rule="nonzero"/><path fill="#0f1035" d="M 61.015625 43.6875 C 60.945312 43.6875 60.878906 43.675781 60.8125 43.640625 C 60.589844 43.527344 60.5 43.257812 60.609375 43.035156 L 62.882812 38.488281 C 62.996094 38.265625 63.265625 38.175781 63.488281 38.289062 C 63.710938 38.398438 63.800781 38.671875 63.691406 38.894531 L 61.417969 43.4375 C 61.335938 43.597656 61.179688 43.6875 61.011719 43.6875 Z M 61.015625 43.6875 " fill-opacity="1" fill-rule="nonzero"/><path fill="#0f1035" d="M 64.621094 39.441406 C 64.996094 38.6875 64.691406 37.769531 63.9375 37.390625 C 63.179688 37.015625 62.261719 37.320312 61.882812 38.074219 C 61.507812 38.832031 61.8125 39.75 62.566406 40.128906 C 63.324219 40.503906 64.242188 40.199219 64.621094 39.441406 Z M 64.621094 39.441406 " fill-opacity="1" fill-rule="nonzero"/><path fill="#0f1035" d="M 54.25 40.3125 C 54.183594 40.3125 54.117188 40.296875 54.054688 40.269531 C 53.828125 40.160156 53.738281 39.890625 53.847656 39.664062 L 56.285156 34.664062 C 56.394531 34.4375 56.664062 34.34375 56.890625 34.453125 C 57.113281 34.566406 57.207031 34.835938 57.097656 35.058594 L 54.660156 40.0625 C 54.578125 40.222656 54.417969 40.316406 54.25 40.316406 Z M 54.25 40.3125 " fill-opacity="1" fill-rule="nonzero"/><path fill="#0f1035" d="M 58.03125 35.597656 C 58.402344 34.839844 58.085938 33.925781 57.328125 33.554688 C 56.570312 33.183594 55.652344 33.5 55.285156 34.257812 C 54.914062 35.019531 55.230469 35.933594 55.988281 36.304688 C 56.746094 36.671875 57.664062 36.359375 58.03125 35.597656 Z M 58.03125 35.597656 " fill-opacity="1" fill-rule="nonzero"/><path fill="#0f1035" d="M 50.878906 42.914062 C 50.859375 42.914062 50.84375 42.914062 50.828125 42.910156 L 44.117188 42.152344 C 43.867188 42.121094 43.691406 41.898438 43.71875 41.652344 C 43.746094 41.402344 43.972656 41.226562 44.21875 41.253906 L 50.929688 42.011719 C 51.175781 42.042969 51.355469 42.265625 51.328125 42.511719 C 51.300781 42.742188 51.105469 42.914062 50.878906 42.914062 Z M 50.878906 42.914062 " fill-opacity="1" fill-rule="nonzero"/><path fill="#0f1035" d="M 44.417969 40.191406 C 43.578125 40.09375 42.820312 40.699219 42.726562 41.539062 C 42.628906 42.378906 43.234375 43.132812 44.074219 43.230469 C 44.914062 43.324219 45.667969 42.722656 45.765625 41.882812 C 45.859375 41.042969 45.257812 40.285156 44.417969 40.191406 Z M 44.417969 40.191406 " fill-opacity="1" fill-rule="nonzero"/><path fill="#0f1035" d="M 42.25 72.113281 C 42.132812 72.113281 42.011719 72.066406 41.921875 71.972656 C 41.75 71.789062 41.757812 71.503906 41.9375 71.332031 L 46.882812 66.640625 C 47.0625 66.46875 47.351562 66.476562 47.523438 66.65625 C 47.695312 66.839844 47.6875 67.125 47.503906 67.296875 L 42.5625 71.988281 C 42.472656 72.070312 42.363281 72.109375 42.25 72.109375 Z M 42.25 72.113281 " fill-opacity="1" fill-rule="nonzero"/><path fill="#0f1035" d="M 48.195312 68.128906 C 48.808594 67.550781 48.832031 66.582031 48.25 65.96875 C 47.667969 65.355469 46.703125 65.332031 46.089844 65.910156 C 45.476562 66.492188 45.453125 67.460938 46.03125 68.074219 C 46.613281 68.6875 47.582031 68.710938 48.195312 68.128906 Z M 48.195312 68.128906 " fill-opacity="1" fill-rule="nonzero"/><path fill="#0f1035" d="M 36.355469 79.03125 C 36.207031 79.03125 36.058594 78.957031 35.972656 78.820312 C 35.839844 78.609375 35.902344 78.328125 36.113281 78.199219 L 41.035156 75.125 C 41.246094 74.992188 41.527344 75.054688 41.65625 75.265625 C 41.789062 75.476562 41.726562 75.757812 41.515625 75.886719 L 36.59375 78.964844 C 36.519531 79.011719 36.4375 79.03125 36.355469 79.03125 Z M 36.355469 79.03125 " fill-opacity="1" fill-rule="nonzero"/><g clip-path="url(#d21e7d6bff)"><path fill="#0f1035" d="M 35.609375 77.242188 C 34.894531 77.691406 34.675781 78.632812 35.125 79.351562 C 35.570312 80.066406 36.515625 80.285156 37.230469 79.835938 C 37.945312 79.390625 38.164062 78.445312 37.71875 77.730469 C 37.269531 77.011719 36.328125 76.796875 35.609375 77.242188 Z M 35.609375 77.242188 " fill-opacity="1" fill-rule="nonzero"/></g><path fill="#0f1035" d="M 47.636719 83.453125 C 47.527344 83.453125 47.417969 83.414062 47.332031 83.335938 L 43.019531 79.394531 C 42.835938 79.222656 42.824219 78.9375 42.992188 78.753906 C 43.160156 78.570312 43.445312 78.558594 43.628906 78.726562 L 47.941406 82.667969 C 48.125 82.835938 48.140625 83.121094 47.972656 83.304688 C 47.882812 83.402344 47.761719 83.453125 47.636719 83.453125 Z M 47.636719 83.453125 " fill-opacity="1" fill-rule="nonzero"/><path fill="#0f1035" d="M 46.546875 84.078125 C 47.171875 84.648438 48.136719 84.605469 48.707031 83.980469 C 49.277344 83.359375 49.234375 82.390625 48.609375 81.824219 C 47.988281 81.253906 47.019531 81.296875 46.453125 81.917969 C 45.882812 82.539062 45.925781 83.507812 46.546875 84.078125 Z M 46.546875 84.078125 " fill-opacity="1" fill-rule="nonzero"/><path fill="#0f1035" d="M 58.882812 111.929688 C 58.675781 111.929688 58.488281 111.789062 58.441406 111.578125 L 57.378906 106.84375 C 57.324219 106.597656 57.476562 106.359375 57.71875 106.304688 C 57.964844 106.25 58.207031 106.402344 58.261719 106.644531 L 59.324219 111.382812 C 59.378906 111.625 59.226562 111.867188 58.984375 111.921875 C 58.949219 111.929688 58.917969 111.929688 58.882812 111.929688 Z M 58.882812 111.929688 " fill-opacity="1" fill-rule="nonzero"/><path fill="#0f1035" d="M 59.324219 106.484375 C 59.140625 105.660156 58.324219 105.140625 57.5 105.328125 C 56.675781 105.511719 56.15625 106.328125 56.34375 107.152344 C 56.527344 107.976562 57.34375 108.496094 58.167969 108.308594 C 58.992188 108.125 59.511719 107.308594 59.324219 106.484375 Z M 59.324219 106.484375 " fill-opacity="1" fill-rule="nonzero"/><path fill="#0f1035" d="M 63.792969 118.417969 C 63.734375 118.417969 63.675781 118.40625 63.613281 118.378906 L 60.105469 116.875 C 59.875 116.777344 59.769531 116.511719 59.867188 116.28125 C 59.964844 116.054688 60.230469 115.945312 60.460938 116.042969 L 63.96875 117.550781 C 64.199219 117.648438 64.304688 117.914062 64.207031 118.140625 C 64.132812 118.3125 63.96875 118.417969 63.792969 118.417969 Z M 63.792969 118.417969 " fill-opacity="1" fill-rule="nonzero"/><path fill="#0f1035" d="M 63.121094 119.339844 C 63.898438 119.671875 64.796875 119.3125 65.128906 118.535156 C 65.460938 117.761719 65.101562 116.863281 64.324219 116.53125 C 63.550781 116.195312 62.652344 116.554688 62.316406 117.332031 C 61.984375 118.109375 62.34375 119.007812 63.121094 119.339844 Z M 63.121094 119.339844 " fill-opacity="1" fill-rule="nonzero"/><path fill="#0f1035" d="M 73.953125 115.683594 C 73.835938 115.683594 73.71875 115.640625 73.632812 115.550781 L 69.121094 111.039062 C 68.945312 110.863281 68.945312 110.578125 69.121094 110.402344 C 69.296875 110.226562 69.582031 110.226562 69.761719 110.402344 L 74.269531 114.910156 C 74.445312 115.089844 74.445312 115.375 74.269531 115.550781 C 74.183594 115.640625 74.066406 115.683594 73.953125 115.683594 Z M 73.953125 115.683594 " fill-opacity="1" fill-rule="nonzero"/><path fill="#0f1035" d="M 72.816406 116.257812 C 73.414062 116.855469 74.378906 116.855469 74.980469 116.257812 C 75.578125 115.660156 75.574219 114.695312 74.980469 114.09375 C 74.382812 113.496094 73.414062 113.5 72.816406 114.09375 C 72.21875 114.691406 72.21875 115.660156 72.816406 116.257812 Z M 72.816406 116.257812 " fill-opacity="1" fill-rule="nonzero"/><g clip-path="url(#d171e63cdb)"><path fill="#0f1035" d="M 96.050781 120.976562 C 95.207031 121.003906 94.542969 121.714844 94.574219 122.558594 C 94.605469 123.398438 95.3125 124.0625 96.15625 124.03125 C 97 124 97.660156 123.292969 97.628906 122.449219 C 97.601562 121.605469 96.894531 120.945312 96.050781 120.976562 Z M 96.050781 120.976562 " fill-opacity="1" fill-rule="nonzero"/></g><g clip-path="url(#acc1da814e)"><path fill="#0f1035" d="M 94.449219 110.40625 C 85.464844 110.40625 77.019531 106.90625 70.667969 100.554688 C 64.316406 94.203125 60.816406 85.757812 60.816406 76.773438 C 60.816406 67.789062 64.316406 59.34375 70.667969 52.992188 C 77.019531 46.640625 85.464844 43.140625 94.449219 43.140625 C 103.433594 43.140625 111.878906 46.640625 118.230469 52.992188 C 124.585938 59.34375 128.082031 67.789062 128.082031 76.773438 C 128.082031 85.757812 124.582031 94.203125 118.230469 100.554688 C 111.878906 106.910156 103.433594 110.40625 94.449219 110.40625 Z M 94.449219 44.648438 C 76.738281 44.648438 62.324219 59.058594 62.324219 76.773438 C 62.324219 94.488281 76.738281 108.898438 94.449219 108.898438 C 112.164062 108.898438 126.574219 94.488281 126.574219 76.773438 C 126.574219 59.058594 112.164062 44.648438 94.449219 44.648438 Z M 94.449219 44.648438 " fill-opacity="1" fill-rule="nonzero"/></g><g clip-path="url(#0b2becacb9)"><g clip-path="url(#ce7a440967)"><path stroke-linecap="butt" transform="matrix(0.75, 0, 0, 0.75, 61.873849, 44.543251)" fill="none" stroke-linejoin="miter" d="M 43.267163 -0.000376088 C 19.371328 -0.000376088 0.00153529 19.322542 0.00153529 43.155877 C 0.00153529 66.989211 19.371328 86.306921 43.267163 86.306921 C 67.162998 86.306921 86.532791 66.989211 86.532791 43.155877 C 86.532791 19.322542 67.162998 -0.000376088 43.267163 -0.000376088 Z M 43.267163 -0.000376088 " stroke="#0f1035" stroke-width="14" stroke-opacity="1" stroke-miterlimit="4"/></g></g><path fill="#38b6ff" d="M 94.265625 107.480469 C 88.011719 107.480469 82 105.605469 76.878906 102.054688 C 74.414062 100.34375 72.214844 98.285156 70.34375 95.933594 C 68.457031 93.5625 66.941406 90.9375 65.835938 88.128906 C 64.433594 84.566406 63.722656 80.800781 63.722656 76.933594 C 63.722656 76.269531 63.742188 75.597656 63.785156 74.933594 C 64.039062 71.03125 65.023438 67.265625 66.707031 63.75 C 68.339844 60.335938 70.574219 57.289062 73.339844 54.6875 C 79.027344 49.335938 86.457031 46.390625 94.265625 46.390625 C 96.59375 46.390625 98.917969 46.652344 101.164062 47.171875 C 103.347656 47.671875 105.484375 48.421875 107.507812 49.398438 C 109.695312 50.453125 111.761719 51.769531 113.644531 53.320312 C 115.515625 54.855469 117.207031 56.617188 118.664062 58.550781 C 120.621094 61.140625 122.144531 64.007812 123.1875 67.074219 C 124.265625 70.238281 124.8125 73.558594 124.8125 76.933594 C 124.8125 79.308594 124.542969 81.675781 124 83.964844 C 123.476562 86.191406 122.695312 88.363281 121.6875 90.417969 C 120.351562 93.125 118.621094 95.621094 116.550781 97.828125 C 114.480469 100.035156 112.109375 101.914062 109.496094 103.417969 C 107.226562 104.726562 104.800781 105.734375 102.28125 106.417969 C 99.679688 107.125 96.984375 107.480469 94.265625 107.480469 Z M 94.265625 46.957031 C 78.507812 46.957031 65.367188 59.265625 64.351562 74.972656 C 64.308594 75.621094 64.289062 76.28125 64.289062 76.933594 C 64.289062 80.726562 64.988281 84.421875 66.363281 87.917969 C 70.910156 99.457031 81.859375 106.914062 94.265625 106.914062 C 99.519531 106.914062 104.683594 105.535156 109.207031 102.929688 C 114.394531 99.941406 118.53125 95.53125 121.175781 90.167969 C 123.210938 86.035156 124.246094 81.582031 124.246094 76.933594 C 124.246094 70.363281 122.160156 64.125 118.210938 58.894531 C 115.335938 55.082031 111.546875 51.976562 107.257812 49.910156 C 103.191406 47.953125 98.820312 46.957031 94.265625 46.957031 Z M 94.265625 46.957031 " fill-opacity="1" fill-rule="nonzero"/><g clip-path="url(#fdc28c31e2)"><path fill="#38b6ff" d="M 94.265625 109.328125 C 87.636719 109.328125 81.257812 107.339844 75.828125 103.570312 C 73.210938 101.757812 70.882812 99.574219 68.898438 97.078125 C 66.898438 94.5625 65.289062 91.78125 64.117188 88.800781 C 62.625 85.023438 61.875 81.03125 61.875 76.933594 C 61.875 76.230469 61.898438 75.515625 61.941406 74.816406 C 62.210938 70.671875 63.253906 66.683594 65.039062 62.953125 C 66.773438 59.335938 69.140625 56.101562 72.074219 53.34375 C 78.101562 47.664062 85.984375 44.542969 94.265625 44.542969 C 96.738281 44.542969 99.199219 44.820312 101.578125 45.371094 C 103.898438 45.90625 106.160156 46.703125 108.304688 47.734375 C 110.625 48.855469 112.816406 50.253906 114.816406 51.894531 C 116.800781 53.527344 118.589844 55.394531 120.140625 57.445312 C 122.214844 60.195312 123.828125 63.234375 124.9375 66.480469 C 126.082031 69.839844 126.660156 73.359375 126.660156 76.9375 C 126.660156 79.457031 126.371094 81.96875 125.796875 84.398438 C 125.242188 86.757812 124.414062 89.058594 123.339844 91.238281 C 121.925781 94.113281 120.089844 96.757812 117.890625 99.097656 C 115.699219 101.4375 113.179688 103.433594 110.410156 105.027344 C 108.007812 106.414062 105.433594 107.480469 102.757812 108.207031 C 100.007812 108.949219 97.148438 109.328125 94.265625 109.328125 Z M 94.265625 45.109375 C 77.535156 45.109375 63.585938 58.171875 62.507812 74.851562 C 62.460938 75.542969 62.4375 76.246094 62.4375 76.9375 C 62.4375 80.964844 63.179688 84.886719 64.640625 88.597656 C 69.472656 100.847656 81.101562 108.761719 94.265625 108.761719 C 99.84375 108.761719 105.328125 107.296875 110.132812 104.53125 C 115.636719 101.359375 120.027344 96.675781 122.832031 90.984375 C 125 86.59375 126.09375 81.867188 126.09375 76.933594 C 126.09375 69.960938 123.878906 63.335938 119.691406 57.785156 C 116.640625 53.738281 112.617188 50.4375 108.0625 48.246094 C 103.738281 46.164062 99.097656 45.109375 94.265625 45.109375 Z M 94.265625 45.109375 " fill-opacity="1" fill-rule="nonzero"/></g><g clip-path="url(#9078afe760)"><path fill="#38b6ff" d="M 94.265625 111.035156 L 94.265625 110.464844 C 94.324219 110.464844 94.382812 110.464844 94.4375 110.464844 L 94.441406 111.035156 C 94.382812 111.035156 94.324219 111.035156 94.265625 111.035156 Z M 94.265625 111.035156 " fill-opacity="1" fill-rule="nonzero"/></g><g clip-path="url(#046528eca9)"><path fill="#38b6ff" d="M 94.785156 111.03125 L 94.777344 110.460938 C 94.890625 110.460938 95.003906 110.460938 95.113281 110.457031 L 95.128906 111.023438 C 95.011719 111.023438 94.898438 111.027344 94.785156 111.03125 Z M 95.472656 111.015625 L 95.453125 110.445312 C 95.566406 110.441406 95.675781 110.4375 95.789062 110.429688 L 95.816406 111 C 95.703125 111.003906 95.585938 111.007812 95.472656 111.015625 Z M 96.160156 110.984375 L 96.128906 110.414062 C 96.242188 110.410156 96.351562 110.398438 96.46875 110.394531 L 96.503906 110.960938 C 96.390625 110.96875 96.277344 110.976562 96.160156 110.984375 Z M 96.847656 110.9375 L 96.804688 110.371094 C 96.917969 110.363281 97.03125 110.355469 97.144531 110.347656 L 97.191406 110.910156 C 97.078125 110.921875 96.960938 110.929688 96.847656 110.9375 Z M 97.535156 110.878906 L 97.480469 110.316406 C 97.59375 110.304688 97.707031 110.292969 97.820312 110.28125 L 97.878906 110.847656 C 97.761719 110.859375 97.648438 110.867188 97.535156 110.878906 Z M 98.21875 110.804688 L 98.15625 110.242188 C 98.269531 110.226562 98.378906 110.214844 98.488281 110.203125 L 98.5625 110.765625 C 98.449219 110.78125 98.332031 110.796875 98.21875 110.804688 Z M 98.902344 110.722656 L 98.824219 110.160156 C 98.9375 110.144531 99.050781 110.128906 99.160156 110.109375 L 99.242188 110.671875 C 99.128906 110.691406 99.015625 110.707031 98.902344 110.722656 Z M 99.585938 110.621094 L 99.496094 110.058594 C 99.605469 110.042969 99.71875 110.023438 99.832031 110.003906 L 99.925781 110.566406 C 99.8125 110.585938 99.699219 110.605469 99.585938 110.621094 Z M 100.261719 110.507812 L 100.164062 109.949219 C 100.273438 109.929688 100.386719 109.910156 100.496094 109.890625 L 100.601562 110.449219 C 100.492188 110.46875 100.375 110.488281 100.261719 110.507812 Z M 100.9375 110.378906 L 100.828125 109.824219 C 100.9375 109.800781 101.050781 109.777344 101.160156 109.753906 L 101.277344 110.3125 C 101.167969 110.335938 101.054688 110.359375 100.9375 110.378906 Z M 101.617188 110.242188 L 101.492188 109.6875 C 101.605469 109.660156 101.714844 109.640625 101.824219 109.613281 L 101.949219 110.167969 C 101.839844 110.191406 101.726562 110.214844 101.617188 110.242188 Z M 102.285156 110.085938 L 102.152344 109.535156 C 102.261719 109.511719 102.371094 109.480469 102.480469 109.453125 L 102.621094 110.003906 C 102.507812 110.03125 102.398438 110.058594 102.285156 110.085938 Z M 102.953125 109.917969 L 102.808594 109.367188 C 102.917969 109.339844 103.027344 109.3125 103.136719 109.28125 L 103.285156 109.828125 C 103.175781 109.859375 103.066406 109.890625 102.953125 109.917969 Z M 103.617188 109.734375 L 103.460938 109.191406 C 103.566406 109.160156 103.675781 109.128906 103.785156 109.097656 L 103.945312 109.640625 C 103.835938 109.671875 103.726562 109.703125 103.617188 109.734375 Z M 104.277344 109.542969 L 104.109375 109 C 104.21875 108.964844 104.328125 108.933594 104.433594 108.898438 L 104.609375 109.441406 C 104.496094 109.472656 104.386719 109.507812 104.277344 109.542969 Z M 104.933594 109.332031 L 104.753906 108.792969 C 104.863281 108.757812 104.96875 108.722656 105.078125 108.683594 L 105.257812 109.222656 C 105.152344 109.261719 105.042969 109.296875 104.933594 109.332031 Z M 105.585938 109.109375 L 105.398438 108.574219 C 105.503906 108.535156 105.609375 108.496094 105.714844 108.460938 L 105.910156 108.992188 C 105.800781 109.035156 105.691406 109.074219 105.585938 109.109375 Z M 106.234375 108.878906 L 106.035156 108.347656 C 106.140625 108.304688 106.246094 108.265625 106.351562 108.226562 L 106.554688 108.757812 C 106.445312 108.792969 106.339844 108.835938 106.234375 108.878906 Z M 106.875 108.628906 L 106.664062 108.097656 C 106.769531 108.054688 106.875 108.011719 106.976562 107.96875 L 107.195312 108.496094 C 107.089844 108.542969 106.980469 108.585938 106.875 108.628906 Z M 107.511719 108.367188 L 107.289062 107.84375 C 107.394531 107.804688 107.496094 107.757812 107.601562 107.710938 L 107.828125 108.230469 C 107.722656 108.277344 107.617188 108.324219 107.511719 108.367188 Z M 108.144531 108.09375 L 107.914062 107.574219 C 108.015625 107.527344 108.117188 107.480469 108.21875 107.433594 L 108.457031 107.949219 C 108.351562 108 108.246094 108.046875 108.144531 108.09375 Z M 108.769531 107.804688 L 108.527344 107.292969 C 108.628906 107.242188 108.730469 107.195312 108.832031 107.148438 L 109.078125 107.65625 C 108.976562 107.710938 108.871094 107.757812 108.769531 107.804688 Z M 109.386719 107.507812 L 109.132812 107 C 109.238281 106.949219 109.335938 106.898438 109.4375 106.847656 L 109.695312 107.355469 C 109.59375 107.40625 109.488281 107.457031 109.386719 107.507812 Z M 110 107.195312 L 109.738281 106.691406 C 109.839844 106.640625 109.9375 106.585938 110.039062 106.53125 L 110.304688 107.03125 C 110.203125 107.089844 110.101562 107.144531 110 107.195312 Z M 110.605469 106.871094 L 110.332031 106.375 C 110.433594 106.320312 110.53125 106.265625 110.628906 106.207031 L 110.90625 106.703125 C 110.808594 106.761719 110.707031 106.816406 110.605469 106.871094 Z M 111.207031 106.535156 L 110.925781 106.042969 L 110.980469 106.011719 C 111.0625 105.96875 111.140625 105.921875 111.21875 105.875 L 111.503906 106.363281 C 111.425781 106.414062 111.34375 106.460938 111.261719 106.503906 Z M 111.800781 106.1875 L 111.507812 105.699219 C 111.605469 105.644531 111.699219 105.582031 111.796875 105.523438 L 112.09375 106.007812 C 111.996094 106.070312 111.898438 106.128906 111.800781 106.1875 Z M 112.386719 105.828125 L 112.085938 105.347656 C 112.183594 105.289062 112.277344 105.230469 112.371094 105.167969 L 112.679688 105.644531 C 112.582031 105.707031 112.484375 105.765625 112.386719 105.828125 Z M 112.964844 105.457031 L 112.652344 104.980469 C 112.746094 104.917969 112.839844 104.855469 112.933594 104.792969 L 113.25 105.265625 C 113.15625 105.328125 113.0625 105.394531 112.964844 105.457031 Z M 113.535156 105.074219 L 113.214844 104.601562 C 113.308594 104.539062 113.398438 104.476562 113.492188 104.410156 L 113.820312 104.875 C 113.726562 104.941406 113.628906 105.007812 113.535156 105.074219 Z M 114.097656 104.675781 L 113.769531 104.214844 C 113.859375 104.148438 113.949219 104.082031 114.042969 104.015625 L 114.378906 104.472656 C 114.285156 104.542969 114.191406 104.609375 114.097656 104.675781 Z M 114.65625 104.269531 L 114.316406 103.816406 C 114.40625 103.75 114.492188 103.679688 114.585938 103.613281 L 114.929688 104.0625 C 114.835938 104.132812 114.746094 104.203125 114.65625 104.269531 Z M 115.199219 103.851562 L 114.851562 103.40625 C 114.941406 103.335938 115.027344 103.265625 115.117188 103.195312 L 115.472656 103.640625 C 115.382812 103.714844 115.292969 103.78125 115.199219 103.851562 Z M 115.742188 103.425781 L 115.382812 102.988281 C 115.472656 102.914062 115.554688 102.84375 115.644531 102.773438 L 116.007812 103.210938 C 115.917969 103.28125 115.828125 103.351562 115.742188 103.425781 Z M 116.269531 102.988281 L 115.902344 102.550781 C 115.988281 102.476562 116.074219 102.40625 116.160156 102.332031 L 116.53125 102.761719 C 116.441406 102.839844 116.359375 102.914062 116.269531 102.988281 Z M 116.789062 102.539062 L 116.414062 102.113281 C 116.5 102.039062 116.582031 101.960938 116.667969 101.886719 L 117.046875 102.308594 C 116.964844 102.386719 116.875 102.464844 116.789062 102.539062 Z M 117.300781 102.082031 L 116.917969 101.664062 C 117 101.585938 117.082031 101.507812 117.164062 101.433594 L 117.554688 101.847656 C 117.472656 101.925781 117.386719 102 117.300781 102.082031 Z M 117.804688 101.609375 L 117.410156 101.195312 C 117.496094 101.121094 117.574219 101.039062 117.65625 100.960938 L 118.054688 101.367188 C 117.96875 101.449219 117.886719 101.527344 117.804688 101.609375 Z M 118.296875 101.128906 L 117.894531 100.726562 C 117.972656 100.644531 118.054688 100.566406 118.132812 100.484375 L 118.539062 100.882812 C 118.457031 100.96875 118.378906 101.046875 118.296875 101.128906 Z M 118.777344 100.640625 L 118.371094 100.246094 C 118.449219 100.164062 118.527344 100.082031 118.601562 100 L 119.015625 100.390625 C 118.9375 100.476562 118.859375 100.558594 118.777344 100.640625 Z M 119.253906 100.140625 L 118.835938 99.753906 C 118.914062 99.671875 118.988281 99.589844 119.066406 99.503906 L 119.484375 99.890625 C 119.40625 99.972656 119.328125 100.058594 119.253906 100.140625 Z M 119.714844 99.632812 L 119.292969 99.253906 C 119.367188 99.171875 119.445312 99.089844 119.515625 99.003906 L 119.945312 99.378906 C 119.867188 99.464844 119.789062 99.546875 119.714844 99.632812 Z M 120.167969 99.117188 L 119.734375 98.746094 C 119.808594 98.660156 119.882812 98.578125 119.953125 98.488281 L 120.390625 98.855469 C 120.316406 98.941406 120.242188 99.027344 120.167969 99.117188 Z M 120.609375 98.589844 L 120.171875 98.230469 C 120.242188 98.140625 120.3125 98.054688 120.382812 97.96875 L 120.828125 98.328125 C 120.753906 98.410156 120.683594 98.5 120.609375 98.589844 Z M 121.039062 98.054688 L 120.59375 97.703125 C 120.664062 97.613281 120.734375 97.523438 120.800781 97.433594 L 121.25 97.78125 C 121.183594 97.875 121.113281 97.964844 121.039062 98.054688 Z M 121.460938 97.511719 L 121.007812 97.167969 C 121.078125 97.078125 121.144531 96.988281 121.210938 96.898438 L 121.667969 97.234375 C 121.601562 97.328125 121.53125 97.421875 121.460938 97.511719 Z M 121.871094 96.960938 L 121.410156 96.625 C 121.476562 96.535156 121.539062 96.441406 121.605469 96.347656 L 122.070312 96.679688 C 122.007812 96.773438 121.9375 96.867188 121.871094 96.960938 Z M 122.269531 96.398438 L 121.800781 96.074219 C 121.867188 95.980469 121.929688 95.890625 121.992188 95.796875 L 122.460938 96.117188 C 122.398438 96.210938 122.335938 96.304688 122.269531 96.398438 Z M 122.65625 95.832031 L 122.1875 95.515625 C 122.25 95.421875 122.3125 95.328125 122.371094 95.234375 L 122.84375 95.542969 C 122.78125 95.640625 122.71875 95.734375 122.65625 95.832031 Z M 123.03125 95.253906 L 122.550781 94.949219 C 122.613281 94.855469 122.671875 94.757812 122.730469 94.660156 L 123.214844 94.960938 C 123.15625 95.0625 123.09375 95.15625 123.03125 95.253906 Z M 123.394531 94.671875 L 122.910156 94.375 C 122.96875 94.28125 123.027344 94.183594 123.082031 94.085938 L 123.574219 94.375 C 123.515625 94.476562 123.457031 94.574219 123.394531 94.671875 Z M 123.75 94.085938 L 123.257812 93.796875 C 123.3125 93.699219 123.371094 93.601562 123.425781 93.503906 L 123.917969 93.785156 C 123.863281 93.886719 123.804688 93.984375 123.75 94.085938 Z M 124.085938 93.488281 L 123.589844 93.210938 C 123.644531 93.113281 123.699219 93.015625 123.75 92.917969 L 124.25 93.1875 C 124.199219 93.285156 124.144531 93.386719 124.085938 93.488281 Z M 124.417969 92.882812 L 123.914062 92.613281 C 123.96875 92.515625 124.019531 92.417969 124.070312 92.316406 L 124.574219 92.578125 C 124.519531 92.679688 124.46875 92.78125 124.417969 92.882812 Z M 124.730469 92.269531 L 124.222656 92.015625 C 124.269531 91.921875 124.316406 91.832031 124.363281 91.738281 L 124.375 91.714844 L 124.886719 91.964844 L 124.875 91.988281 C 124.824219 92.082031 124.78125 92.175781 124.730469 92.269531 Z M 125.035156 91.65625 L 124.523438 91.410156 C 124.574219 91.308594 124.621094 91.207031 124.667969 91.105469 L 125.183594 91.347656 C 125.132812 91.449219 125.085938 91.550781 125.035156 91.65625 Z M 125.324219 91.03125 L 124.808594 90.796875 C 124.855469 90.695312 124.902344 90.589844 124.949219 90.488281 L 125.46875 90.71875 C 125.417969 90.824219 125.371094 90.929688 125.324219 91.03125 Z M 125.605469 90.402344 L 125.082031 90.179688 C 125.125 90.078125 125.167969 89.972656 125.210938 89.871094 L 125.734375 90.089844 C 125.691406 90.195312 125.648438 90.300781 125.605469 90.402344 Z M 125.867188 89.769531 L 125.34375 89.558594 C 125.386719 89.453125 125.429688 89.351562 125.46875 89.246094 L 125.996094 89.453125 C 125.953125 89.558594 125.910156 89.664062 125.867188 89.769531 Z M 126.121094 89.132812 L 125.589844 88.925781 C 125.628906 88.820312 125.667969 88.714844 125.710938 88.609375 L 126.242188 88.808594 C 126.199219 88.917969 126.160156 89.027344 126.121094 89.132812 Z M 126.359375 88.488281 L 125.824219 88.296875 C 125.863281 88.191406 125.902344 88.082031 125.9375 87.976562 L 126.476562 88.164062 C 126.4375 88.273438 126.398438 88.382812 126.359375 88.488281 Z M 126.585938 87.839844 L 126.046875 87.65625 C 126.085938 87.546875 126.117188 87.445312 126.152344 87.335938 L 126.691406 87.511719 C 126.660156 87.621094 126.621094 87.730469 126.585938 87.839844 Z M 126.796875 87.1875 L 126.253906 87.015625 C 126.289062 86.910156 126.324219 86.800781 126.355469 86.691406 L 126.898438 86.859375 C 126.867188 86.96875 126.835938 87.078125 126.796875 87.1875 Z M 127 86.527344 L 126.453125 86.371094 C 126.484375 86.261719 126.515625 86.152344 126.546875 86.046875 L 127.097656 86.199219 C 127.0625 86.308594 127.03125 86.421875 127 86.527344 Z M 127.183594 85.871094 L 126.636719 85.722656 C 126.664062 85.613281 126.691406 85.503906 126.722656 85.394531 L 127.273438 85.535156 C 127.242188 85.648438 127.214844 85.757812 127.183594 85.871094 Z M 127.355469 85.203125 L 126.804688 85.066406 C 126.835938 84.960938 126.859375 84.847656 126.886719 84.742188 L 127.441406 84.871094 C 127.410156 84.980469 127.386719 85.09375 127.355469 85.203125 Z M 127.515625 84.535156 L 126.960938 84.410156 C 126.988281 84.300781 127.011719 84.191406 127.035156 84.082031 L 127.589844 84.199219 C 127.566406 84.3125 127.542969 84.421875 127.515625 84.535156 Z M 127.660156 83.863281 L 127.105469 83.75 C 127.128906 83.636719 127.148438 83.527344 127.167969 83.417969 L 127.726562 83.527344 C 127.707031 83.640625 127.683594 83.753906 127.660156 83.863281 Z M 127.792969 83.191406 L 127.234375 83.085938 C 127.253906 82.976562 127.273438 82.867188 127.292969 82.753906 L 127.855469 82.851562 C 127.835938 82.964844 127.816406 83.078125 127.792969 83.191406 Z M 127.910156 82.511719 L 127.351562 82.421875 C 127.367188 82.3125 127.386719 82.199219 127.40625 82.089844 L 127.96875 82.175781 C 127.949219 82.289062 127.929688 82.402344 127.910156 82.511719 Z M 128.015625 81.835938 L 127.453125 81.757812 C 127.472656 81.648438 127.484375 81.535156 127.5 81.421875 L 128.0625 81.496094 C 128.046875 81.609375 128.035156 81.722656 128.015625 81.835938 Z M 128.109375 81.15625 L 127.542969 81.082031 C 127.558594 80.972656 127.574219 80.859375 127.585938 80.75 L 128.148438 80.8125 C 128.136719 80.925781 128.121094 81.042969 128.109375 81.15625 Z M 128.183594 80.472656 L 127.617188 80.414062 C 127.628906 80.300781 127.640625 80.1875 127.652344 80.078125 L 128.21875 80.132812 C 128.207031 80.246094 128.195312 80.359375 128.183594 80.472656 Z M 128.25 79.792969 L 127.683594 79.742188 C 127.691406 79.632812 127.699219 79.519531 127.710938 79.40625 L 128.273438 79.449219 C 128.265625 79.5625 128.257812 79.675781 128.25 79.792969 Z M 128.296875 79.105469 L 127.730469 79.070312 C 127.734375 78.957031 127.742188 78.84375 127.75 78.730469 L 128.316406 78.761719 C 128.3125 78.878906 128.304688 78.992188 128.296875 79.105469 Z M 128.335938 78.421875 L 127.765625 78.394531 C 127.773438 78.285156 127.773438 78.171875 127.777344 78.058594 L 128.347656 78.078125 C 128.34375 78.195312 128.339844 78.308594 128.335938 78.421875 Z M 128.359375 77.738281 L 127.789062 77.722656 C 127.792969 77.609375 127.792969 77.496094 127.792969 77.382812 L 128.363281 77.394531 C 128.363281 77.507812 128.359375 77.621094 128.359375 77.738281 Z M 128.367188 77.050781 L 127.796875 77.046875 C 127.796875 77.007812 127.796875 76.972656 127.796875 76.933594 C 127.796875 76.859375 127.796875 76.785156 127.796875 76.707031 L 128.367188 76.707031 C 128.367188 76.78125 128.367188 76.859375 128.367188 76.933594 C 128.367188 76.972656 128.367188 77.011719 128.367188 77.050781 Z M 127.792969 76.371094 C 127.792969 76.257812 127.789062 76.144531 127.785156 76.03125 L 128.355469 76.015625 C 128.359375 76.132812 128.359375 76.246094 128.363281 76.363281 Z M 127.792969 76.371094 " fill-opacity="1" fill-rule="nonzero"/></g><g clip-path="url(#37019a253d)"><path fill="#38b6ff" d="M 127.773438 75.695312 C 127.773438 75.636719 127.773438 75.578125 127.769531 75.527344 L 128.335938 75.503906 C 128.339844 75.558594 128.34375 75.617188 128.34375 75.671875 Z M 127.773438 75.695312 " fill-opacity="1" fill-rule="nonzero"/></g><path fill="#38b6ff" d="M 74.394531 56.628906 L 73.996094 56.222656 C 74.035156 56.183594 74.078125 56.144531 74.117188 56.105469 L 74.511719 56.511719 C 74.472656 56.550781 74.433594 56.589844 74.394531 56.628906 Z M 74.394531 56.628906 " fill-opacity="1" fill-rule="nonzero"/><path fill="#38b6ff" d="M 66.128906 72.957031 L 65.566406 72.878906 C 65.585938 72.765625 65.597656 72.652344 65.617188 72.542969 L 66.179688 72.628906 C 66.160156 72.738281 66.144531 72.847656 66.128906 72.957031 Z M 66.230469 72.300781 L 65.671875 72.210938 C 65.6875 72.097656 65.707031 71.984375 65.726562 71.875 L 66.285156 71.972656 C 66.265625 72.082031 66.246094 72.191406 66.230469 72.300781 Z M 66.347656 71.644531 L 65.785156 71.539062 C 65.804688 71.429688 65.828125 71.316406 65.851562 71.207031 L 66.410156 71.316406 C 66.386719 71.429688 66.367188 71.535156 66.347656 71.644531 Z M 66.476562 70.992188 L 65.921875 70.875 C 65.941406 70.761719 65.96875 70.652344 65.992188 70.542969 L 66.546875 70.667969 C 66.523438 70.777344 66.5 70.886719 66.476562 70.992188 Z M 66.621094 70.347656 L 66.066406 70.214844 C 66.09375 70.105469 66.121094 69.996094 66.148438 69.886719 L 66.699219 70.023438 C 66.671875 70.128906 66.648438 70.238281 66.621094 70.347656 Z M 66.785156 69.699219 L 66.234375 69.554688 C 66.265625 69.449219 66.292969 69.335938 66.324219 69.230469 L 66.871094 69.378906 C 66.839844 69.484375 66.8125 69.59375 66.785156 69.699219 Z M 66.960938 69.058594 L 66.414062 68.902344 C 66.445312 68.792969 66.476562 68.683594 66.511719 68.574219 L 67.058594 68.742188 C 67.023438 68.84375 66.992188 68.953125 66.960938 69.058594 Z M 67.152344 68.421875 L 66.609375 68.25 C 66.640625 68.144531 66.675781 68.035156 66.710938 67.925781 L 67.25 68.105469 C 67.21875 68.210938 67.183594 68.316406 67.152344 68.421875 Z M 67.359375 67.792969 L 66.820312 67.609375 C 66.859375 67.503906 66.894531 67.394531 66.933594 67.289062 L 67.46875 67.480469 C 67.429688 67.582031 67.390625 67.6875 67.359375 67.792969 Z M 67.578125 67.164062 L 67.046875 66.96875 C 67.085938 66.863281 67.125 66.753906 67.164062 66.648438 L 67.695312 66.851562 C 67.65625 66.957031 67.617188 67.0625 67.578125 67.164062 Z M 67.816406 66.539062 L 67.285156 66.332031 C 67.328125 66.226562 67.371094 66.125 67.410156 66.019531 L 67.9375 66.230469 C 67.898438 66.332031 67.855469 66.4375 67.816406 66.539062 Z M 68.066406 65.925781 L 67.542969 65.703125 C 67.585938 65.601562 67.628906 65.496094 67.675781 65.390625 L 68.195312 65.617188 C 68.152344 65.71875 68.109375 65.824219 68.066406 65.925781 Z M 68.332031 65.316406 L 67.816406 65.082031 C 67.859375 64.980469 67.910156 64.875 67.957031 64.773438 L 68.472656 65.011719 C 68.421875 65.113281 68.375 65.214844 68.332031 65.316406 Z M 68.609375 64.710938 L 68.097656 64.464844 C 68.144531 64.363281 68.195312 64.261719 68.246094 64.160156 L 68.753906 64.410156 C 68.707031 64.511719 68.660156 64.613281 68.609375 64.710938 Z M 68.902344 64.113281 L 68.398438 63.859375 C 68.449219 63.757812 68.5 63.65625 68.554688 63.558594 L 69.058594 63.820312 C 69.007812 63.914062 68.953125 64.015625 68.902344 64.113281 Z M 69.214844 63.523438 L 68.714844 63.253906 C 68.765625 63.152344 68.820312 63.054688 68.875 62.953125 L 69.371094 63.230469 C 69.320312 63.328125 69.265625 63.425781 69.214844 63.523438 Z M 69.535156 62.941406 L 69.039062 62.660156 C 69.09375 62.5625 69.152344 62.464844 69.210938 62.363281 L 69.703125 62.652344 C 69.644531 62.746094 69.589844 62.84375 69.535156 62.941406 Z M 69.871094 62.367188 L 69.382812 62.074219 C 69.4375 61.976562 69.496094 61.878906 69.558594 61.785156 L 70.039062 62.082031 C 69.984375 62.175781 69.925781 62.269531 69.871094 62.367188 Z M 70.214844 61.796875 L 69.738281 61.496094 C 69.796875 61.402344 69.859375 61.304688 69.917969 61.207031 L 70.394531 61.515625 C 70.335938 61.609375 70.277344 61.703125 70.214844 61.796875 Z M 70.582031 61.238281 L 70.105469 60.921875 C 70.167969 60.828125 70.230469 60.734375 70.296875 60.640625 L 70.765625 60.964844 C 70.703125 61.054688 70.640625 61.148438 70.582031 61.238281 Z M 70.953125 60.691406 L 70.488281 60.367188 C 70.550781 60.273438 70.617188 60.179688 70.683594 60.085938 L 71.144531 60.417969 C 71.082031 60.507812 71.019531 60.597656 70.953125 60.691406 Z M 71.34375 60.148438 L 70.882812 59.8125 C 70.949219 59.722656 71.019531 59.628906 71.085938 59.539062 L 71.539062 59.878906 C 71.472656 59.96875 71.40625 60.058594 71.34375 60.148438 Z M 71.742188 59.617188 L 71.292969 59.269531 C 71.363281 59.179688 71.433594 59.089844 71.5 59.003906 L 71.945312 59.355469 C 71.878906 59.441406 71.808594 59.527344 71.742188 59.617188 Z M 72.15625 59.09375 L 71.710938 58.734375 C 71.78125 58.648438 71.851562 58.558594 71.925781 58.472656 L 72.363281 58.832031 C 72.292969 58.917969 72.222656 59.007812 72.15625 59.09375 Z M 72.578125 58.578125 L 72.144531 58.210938 C 72.21875 58.128906 72.289062 58.039062 72.363281 57.953125 L 72.792969 58.324219 C 72.722656 58.410156 72.648438 58.496094 72.578125 58.578125 Z M 73.015625 58.074219 L 72.589844 57.699219 C 72.664062 57.613281 72.738281 57.53125 72.816406 57.445312 L 73.238281 57.828125 C 73.164062 57.910156 73.089844 57.992188 73.015625 58.074219 Z M 73.460938 57.585938 L 73.046875 57.199219 C 73.125 57.117188 73.203125 57.03125 73.28125 56.949219 L 73.691406 57.34375 C 73.613281 57.421875 73.539062 57.503906 73.460938 57.585938 Z M 73.921875 57.101562 L 73.515625 56.703125 C 73.59375 56.625 73.675781 56.542969 73.753906 56.460938 L 74.15625 56.863281 C 74.078125 56.941406 74 57.023438 73.921875 57.101562 Z M 73.921875 57.101562 " fill-opacity="1" fill-rule="nonzero"/><path fill="#38b6ff" d="M 66.0625 73.476562 L 65.496094 73.410156 C 65.503906 73.351562 65.511719 73.296875 65.515625 73.238281 L 66.078125 73.308594 C 66.078125 73.363281 66.070312 73.421875 66.0625 73.476562 Z M 66.0625 73.476562 " fill-opacity="1" fill-rule="nonzero"/><path fill="#38b6ff" d="M 67.28125 86.597656 C 66.875 87.0625 66.4375 87.578125 66.101562 88.019531 C 64.746094 84.585938 64.003906 80.847656 64.003906 76.933594 C 64.003906 76.269531 64.027344 75.609375 64.070312 74.953125 L 65.632812 75.808594 C 65.617188 76.183594 65.609375 76.558594 65.609375 76.933594 C 65.609375 80.328125 66.199219 83.582031 67.28125 86.597656 Z M 67.28125 86.597656 " fill-opacity="1" fill-rule="nonzero"/><path fill="#38b6ff" d="M 121.429688 90.296875 C 118.769531 95.695312 114.546875 100.183594 109.351562 103.175781 L 108.933594 101.5625 C 113.644531 98.753906 117.480469 94.628906 119.933594 89.695312 Z M 121.429688 90.296875 " fill-opacity="1" fill-rule="nonzero"/><path fill="#38b6ff" d="M 118.4375 58.722656 L 117.546875 60.21875 C 114.839844 56.460938 111.25 53.382812 107.078125 51.292969 L 107.382812 49.652344 C 111.753906 51.757812 115.542969 54.886719 118.4375 58.722656 Z M 118.4375 58.722656 " fill-opacity="1" fill-rule="nonzero"/></svg>